# Blender v2.79 (sub 0) OBJ File: 'BusDrop.blend'
# www.blender.org
mtllib BusDropp2.mtl
o Cube
v 17.000000 1.000000 -29.000000
v 17.000000 -1.000000 -29.000000
v 17.000000 1.000000 29.000000
v 17.000000 -1.000000 29.000000
v -17.000000 1.000000 -29.000000
v -17.000000 -1.000000 -29.000000
v -17.000000 1.000000 29.000000
v -17.000000 -1.000000 29.000000
v 16.999992 1.000000 0.000006
v 16.999992 -1.000000 0.000006
v -14.134991 1.000000 16.111525
v -12.020823 1.000000 20.506088
v -3.316545 1.000000 28.442772
v -9.444704 1.000000 24.112612
v -0.000009 1.000000 29.000000
v -0.000003 1.000000 -28.999983
v -0.000009 -1.000000 29.000000
v -0.000003 -1.000000 -28.999983
v -6.505628 1.000000 26.792501
v 17.000000 1.000000 -22.555555
v 17.000000 1.000000 -16.111111
v 17.000000 1.000000 -9.666666
v 17.000000 1.000000 -3.222222
v 17.000000 1.000000 3.222222
v 17.000000 1.000000 9.666667
v 17.000000 1.000000 16.111111
v 17.000000 1.000000 22.555555
v 12.142857 1.000000 29.000000
v 7.285714 1.000000 29.000000
v 2.428571 1.000000 29.000000
v -2.428572 1.000000 29.000000
v -7.285715 1.000000 29.000000
v -12.142857 1.000000 29.000000
v -12.142857 1.000000 -29.000000
v -7.285714 1.000000 -29.000000
v -2.428571 1.000000 -29.000000
v 2.428572 1.000000 -29.000000
v 7.285715 1.000000 -29.000000
v 12.142857 1.000000 -29.000000
v -0.000000 1.000000 -18.999994
v -3.316513 1.000000 -28.442764
v -6.505597 1.000000 -26.792507
v -9.444675 1.000000 -24.112625
v -12.020802 1.000000 -20.506107
v -14.134973 1.000000 -16.111553
v -15.705944 1.000000 -11.097838
v -17.000000 1.000000 0.000000
v -16.673346 1.000000 -5.657640
v -17.000000 1.000000 -0.000020
v -17.000000 -1.000000 -0.000020
v -16.673351 1.000000 5.657601
v -15.705958 1.000000 11.097803
v 0.000000 1.000000 -29.000000
v -0.000000 1.000000 29.000000
v -0.000003 1.000000 19.000008
v -1.365636 1.000000 18.634924
v -2.678787 1.000000 17.553713
v -3.888995 1.000000 15.797922
v -4.949751 1.000000 13.435026
v -5.820291 1.000000 10.555829
v -6.467159 1.000000 7.270977
v -6.865499 1.000000 3.706705
v -7.000000 1.000000 -0.000013
v -6.865496 1.000000 -3.706730
v -6.467154 1.000000 -7.270999
v -5.820283 1.000000 -10.555848
v -4.949741 1.000000 -13.435040
v -3.888984 1.000000 -15.797932
v -2.678775 1.000000 -17.553717
v -1.365622 1.000000 -18.634920
v 17.000000 1.000000 17.722221
v 17.000000 1.000000 19.333332
v 17.000000 1.000000 20.944443
v 17.000000 1.000000 -19.333332
v -17.000000 1.000000 -3.222222
v -17.000000 1.000000 -6.444445
v -17.000000 1.000000 -9.666667
v -17.000000 1.000000 -12.888889
v -17.000000 1.000000 -16.111111
v -17.000000 1.000000 -19.333332
v -17.000000 1.000000 -22.555555
v -17.000000 1.000000 -25.777779
v -17.000000 1.000000 25.777779
v -17.000000 1.000000 22.555557
v -17.000000 1.000000 19.333334
v -17.000000 1.000000 16.111111
v -17.000000 1.000000 12.888888
v -17.000000 1.000000 9.666666
v -17.000000 1.000000 6.444444
v -17.000000 1.000000 3.222222
vn 0.0000 1.0000 0.0000
vn 0.0000 -1.0000 0.0000
vn 0.0000 0.0000 1.0000
vn 1.0000 0.0000 0.0000
vn -1.0000 0.0000 0.0000
vn 0.0000 0.0000 -1.0000
g Cube_Cube_Material.001
usemtl Material.001
s off
f 66//1 46//1 65//1
f 76//2 47//2 49//2
f 51//2 49//2 47//2
f 3//1 27//1 28//1
f 27//1 73//1 29//1
f 29//1 73//1 55//1
f 73//1 72//1 55//1
f 28//1 27//1 29//1
f 30//1 29//1 55//1
f 30//1 55//1 54//1
f 55//1 56//1 13//1
f 15//1 54//1 13//1
f 13//1 54//1 55//1
f 56//1 57//1 14//1
f 13//1 56//1 19//1
f 14//1 19//1 56//1
f 11//1 12//1 59//1
f 12//1 14//1 57//1
f 58//1 12//1 57//1
f 51//1 52//1 61//1
f 52//1 11//1 60//1
f 48//1 49//1 64//1
f 49//1 51//1 62//1
f 45//1 46//1 66//1
f 46//1 48//1 65//1
f 45//1 66//1 67//1
f 43//1 44//1 69//1
f 44//1 45//1 67//1
f 69//1 44//1 68//1
f 41//1 42//1 70//1
f 42//1 43//1 70//1
f 70//1 43//1 69//1
f 37//1 53//1 16//1
f 16//1 41//1 40//1
f 49//1 62//1 63//1
f 11//1 59//1 60//1
f 12//1 58//1 59//1
f 68//1 44//1 67//1
f 38//1 37//1 40//1
f 37//1 16//1 40//1
f 20//1 1//1 39//1
f 39//1 38//1 20//1
f 52//1 60//1 61//1
f 38//1 40//1 74//1
f 20//1 38//1 74//1
f 51//1 61//1 62//1
f 70//1 40//1 41//1
f 49//1 63//1 64//1
f 48//1 64//1 65//1
f 48//1 46//1 76//1
f 76//3 75//3 47//3
f 49//1 48//1 76//1
f 47//1 90//1 51//1
f 90//1 89//1 51//1
f 89//1 52//1 51//1
g Cube_Cube_Material.003
usemtl Material.003
f 55//1 25//1 59//1
f 2//2 8//2 6//2
f 26//4 71//4 4//4
f 75//5 76//5 6//5
f 32//3 33//3 8//3
f 38//6 39//6 2//6
f 83//1 14//1 12//1
f 42//1 35//1 43//1
f 22//1 21//1 40//1
f 21//1 74//1 40//1
f 40//1 67//1 22//1
f 40//1 70//1 69//1
f 68//1 40//1 69//1
f 68//1 67//1 40//1
f 67//1 66//1 22//1
f 66//1 65//1 22//1
f 65//1 64//1 23//1
f 22//1 65//1 23//1
f 64//1 63//1 23//1
f 63//1 62//1 24//1
f 23//1 63//1 24//1
f 62//1 61//1 24//1
f 61//1 60//1 25//1
f 24//1 61//1 25//1
f 60//1 59//1 25//1
f 59//1 58//1 55//1
f 58//1 57//1 55//1
f 57//1 56//1 55//1
f 55//1 72//1 71//1
f 71//1 26//1 55//1
f 26//1 25//1 55//1
f 2//2 4//2 8//2
f 4//4 2//4 23//4
f 2//4 1//4 20//4
f 20//4 74//4 2//4
f 74//4 21//4 2//4
f 2//4 21//4 22//4
f 27//4 3//4 4//4
f 71//4 72//4 4//4
f 72//4 73//4 4//4
f 73//4 27//4 4//4
f 22//4 23//4 2//4
f 23//4 24//4 4//4
f 24//4 25//4 4//4
f 25//4 26//4 4//4
f 6//5 8//5 47//5
f 8//5 7//5 83//5
f 83//5 84//5 8//5
f 84//5 85//5 8//5
f 8//5 85//5 86//5
f 82//5 5//5 6//5
f 79//5 80//5 6//5
f 80//5 81//5 6//5
f 81//5 82//5 6//5
f 86//5 87//5 8//5
f 87//5 88//5 8//5
f 8//5 88//5 89//5
f 76//5 77//5 6//5
f 77//5 78//5 6//5
f 78//5 79//5 6//5
f 89//5 90//5 8//5
f 90//5 47//5 8//5
f 47//5 75//5 6//5
f 8//3 4//3 54//3
f 4//3 3//3 28//3
f 28//3 29//3 4//3
f 29//3 30//3 4//3
f 4//3 30//3 54//3
f 33//3 7//3 8//3
f 54//3 31//3 8//3
f 31//3 32//3 8//3
f 2//6 6//6 53//6
f 6//6 5//6 34//6
f 34//6 35//6 6//6
f 35//6 36//6 6//6
f 6//6 36//6 53//6
f 39//6 1//6 2//6
f 53//6 37//6 2//6
f 37//6 38//6 2//6
f 7//1 33//1 83//1
f 33//1 32//1 14//1
f 83//1 33//1 14//1
f 31//3 54//3 15//3
f 14//1 32//1 19//1
f 31//1 15//1 13//1
f 32//1 31//1 13//1
f 19//1 32//1 13//1
f 86//1 85//1 11//1
f 85//1 84//1 12//1
f 11//1 85//1 12//1
f 84//1 83//1 12//1
f 87//1 86//1 11//1
f 52//1 89//1 88//1
f 88//1 87//1 52//1
f 11//1 52//1 87//1
f 5//1 82//1 34//1
f 82//1 81//1 44//1
f 34//1 82//1 43//1
f 80//1 79//1 45//1
f 79//1 78//1 45//1
f 80//1 45//1 44//1
f 81//1 80//1 44//1
f 36//1 35//1 41//1
f 35//1 34//1 43//1
f 36//1 41//1 16//1
f 43//1 82//1 44//1
f 78//1 77//1 46//1
f 77//1 76//1 46//1
f 46//1 45//1 78//1
f 16//1 53//1 36//1
f 41//1 35//1 42//1
l 9 10
l 18 16
l 15 17
l 49 50
