# Blender v2.79 (sub 0) OBJ File: ''
# www.blender.org
mtllib FiveStraight.mtl
o Cube
v 1.000000 -1.000000 -1.000000
v 1.000000 -1.000000 1.000000
v -1.000000 -1.000000 1.000000
v -1.000000 -1.000000 -1.000000
v 1.000000 1.000000 -0.999999
v 0.999999 1.000000 1.000001
v -1.000000 1.000000 1.000000
v -1.000000 1.000000 -1.000000
v 1.000000 1.000000 -0.199999
v 1.000000 1.000000 0.200001
v -1.000000 1.000000 0.200000
v -1.000000 1.000000 -0.200000
vn 0.0000 1.0000 0.0000
vn 0.0000 -1.0000 0.0000
vn 1.0000 0.0000 0.0000
vn -0.0000 -0.0000 1.0000
vn -1.0000 -0.0000 -0.0000
vn 0.0000 0.0000 -1.0000
g Cube_Cube_Material.001
usemtl Material.001
s off
f 9//1 12//1 11//1 10//1
g Cube_Cube_Material.002
usemtl Material.002
f 1//2 2//2 3//2 4//2
f 10//1 11//1 7//1 6//1
f 1//3 5//3 9//3 10//3 6//3 2//3
f 2//4 6//4 7//4 3//4
f 3//5 7//5 11//5 12//5 8//5 4//5
f 5//6 1//6 4//6 8//6
f 8//1 12//1 9//1 5//1
