# Blender v2.79 (sub 0) OBJ File: ''
# www.blender.org
mtllib FiveCross.mtl
o Cube
v 1.000000 -1.000000 -1.000000
v 1.000000 -1.000000 1.000000
v -1.000000 -1.000000 1.000000
v -1.000000 -1.000000 -1.000000
v 1.000000 1.000000 -0.999999
v 0.999999 1.000000 1.000001
v -1.000000 1.000000 1.000000
v -1.000000 1.000000 -1.000000
v 1.000000 1.000000 -0.599999
v 1.000000 1.000000 -0.199999
v 1.000000 1.000000 0.200001
v 1.000000 1.000000 0.600001
v 0.600000 1.000000 -1.000000
v 0.200000 1.000000 -1.000000
v -0.200000 1.000000 -1.000000
v -0.600000 1.000000 -1.000000
v 0.599999 1.000000 1.000000
v 0.199999 1.000000 1.000000
v -0.200000 1.000000 1.000000
v -0.600000 1.000000 1.000000
v -1.000000 1.000000 0.600000
v -1.000000 1.000000 0.200000
v -1.000000 1.000000 -0.200000
v -1.000000 1.000000 -0.600000
v 0.600000 1.000000 -0.200000
v 0.600000 1.000000 0.200000
v 0.200000 1.000000 -0.600000
v 0.200000 1.000000 -0.200000
v 0.200000 1.000000 0.200000
v 0.200000 1.000000 0.600000
v -0.200000 1.000000 -0.600000
v -0.200000 1.000000 -0.200000
v -0.200000 1.000000 0.200000
v -0.200000 1.000000 0.600000
v -0.600000 1.000000 -0.200000
v -0.600000 1.000000 0.200000
vn 0.0000 1.0000 0.0000
vn 0.0000 -1.0000 0.0000
vn 1.0000 0.0000 0.0000
vn -0.0000 0.0000 1.0000
vn -1.0000 -0.0000 0.0000
vn 0.0000 0.0000 -1.0000
g Cube_Cube_Material.001
usemtl Material.001
s off
f 33//1 28//1 32//1
f 33//1 34//1 29//1
f 34//1 19//1 30//1
f 29//1 34//1 30//1
f 19//1 18//1 30//1
f 22//1 36//1 23//1
f 36//1 33//1 35//1
f 23//1 36//1 35//1
f 26//1 11//1 10//1
f 33//1 29//1 28//1
f 29//1 26//1 28//1
f 26//1 10//1 25//1
f 28//1 26//1 25//1
f 27//1 14//1 15//1
f 28//1 27//1 31//1
f 27//1 15//1 31//1
f 31//1 32//1 28//1
f 32//1 35//1 33//1
g Cube_Cube_Material.002
usemtl Material.002
f 2//2 4//2 1//2
f 11//3 12//3 2//3
f 19//4 20//4 3//4
f 23//5 24//5 4//5
f 14//6 13//6 1//6
f 30//1 17//1 26//1
f 27//1 25//1 9//1
f 36//1 20//1 34//1
f 24//1 35//1 31//1
f 2//2 3//2 4//2
f 2//3 1//3 10//3
f 1//3 5//3 9//3
f 9//3 10//3 1//3
f 10//3 11//3 2//3
f 12//3 6//3 2//3
f 3//4 2//4 18//4
f 2//4 6//4 17//4
f 17//4 18//4 2//4
f 18//4 19//4 3//4
f 20//4 7//4 3//4
f 4//5 3//5 22//5
f 3//5 7//5 21//5
f 21//5 22//5 3//5
f 22//5 23//5 4//5
f 24//5 8//5 4//5
f 13//6 5//6 1//6
f 1//6 4//6 15//6
f 4//6 8//6 16//6
f 16//6 15//6 4//6
f 15//6 14//6 1//6
f 11//1 26//1 12//1
f 26//1 29//1 30//1
f 12//1 26//1 17//1
f 30//1 18//1 17//1
f 17//1 6//1 12//1
f 9//1 5//1 13//1
f 13//1 14//1 27//1
f 27//1 28//1 25//1
f 25//1 10//1 9//1
f 9//1 13//1 27//1
f 36//1 22//1 21//1
f 21//1 7//1 20//1
f 20//1 19//1 34//1
f 34//1 33//1 36//1
f 36//1 21//1 20//1
f 31//1 15//1 16//1
f 16//1 8//1 24//1
f 24//1 23//1 35//1
f 35//1 32//1 31//1
f 31//1 16//1 24//1
