# Blender v2.79 (sub 0) OBJ File: ''
# www.blender.org
mtllib F.mtl
o Cube
v 1.000000 -1.000000 -1.000000
v 1.000000 -1.000000 1.000000
v -1.000000 -1.000000 1.000000
v -1.000000 -1.000000 -1.000000
v 1.000000 1.000000 -0.999999
v 0.999999 1.000000 1.000001
v -1.000000 1.000000 1.000000
v -1.000000 1.000000 -1.000000
v 1.000000 1.000000 -0.199999
v 1.000000 1.000000 0.200001
v 0.200000 1.000000 -1.000000
v -0.200000 1.000000 -1.000000
v 0.200000 1.000000 -0.200000
v -0.200000 1.000000 0.200000
vn 0.0000 1.0000 0.0000
vn 1.0000 0.0000 0.0000
vn 0.0000 -0.0000 1.0000
vn -1.0000 -0.0000 -0.0000
vn 0.0000 0.0000 -1.0000
vn 0.0000 -1.0000 0.0000
g Cube_Cube_Material.001
usemtl Material.001
s off
f 10//1 9//1 13//1
f 11//1 12//1 13//1
f 12//1 14//1 13//1
f 14//1 10//1 13//1
g Cube_Cube_Material.002
usemtl Material.002
f 10//2 6//2 2//2
f 6//3 3//3 2//3
f 3//4 8//4 4//4
f 12//5 11//5 1//5
f 7//1 14//1 8//1
f 11//1 9//1 5//1
f 2//6 4//6 1//6
f 2//2 1//2 9//2
f 1//2 5//2 9//2
f 9//2 10//2 2//2
f 6//3 7//3 3//3
f 3//4 7//4 8//4
f 11//5 5//5 1//5
f 1//5 4//5 12//5
f 4//5 8//5 12//5
f 7//1 6//1 14//1
f 6//1 10//1 14//1
f 14//1 12//1 8//1
f 11//1 13//1 9//1
f 2//6 3//6 4//6
