# Blender v2.79 (sub 0) OBJ File: 'SoloFlags1over.blend'
# www.blender.org
mtllib SFlags1over.mtl
o Cube
v -0.858928 0.907603 -0.294285
v -0.858928 0.907603 -0.305716
v -5.971265 1.500000 -2.005715
v -0.028733 1.500000 0.005715
v -0.028733 1.500000 -0.005716
v -5.971265 1.500000 -1.994285
v -0.622986 1.225000 -0.205716
v -1.217240 1.075000 -0.405716
v -1.811493 0.925000 -0.605716
v -2.405746 0.875000 -0.805716
v -3.000000 0.825000 -1.005716
v -3.594253 0.875000 -1.205716
v -4.188506 0.925000 -1.405715
v -4.782759 1.075000 -1.605715
v -5.377012 1.225000 -1.805715
v -0.622986 1.225000 -0.194285
v -1.217240 1.075000 -0.394285
v -1.811493 0.925000 -0.594285
v -2.405746 0.875000 -0.794285
v -3.000000 0.825000 -0.994285
v -3.594253 0.875000 -1.194285
v -4.188506 0.925000 -1.394285
v -4.782759 1.075000 -1.594285
v -5.377012 1.225000 -1.794285
v -0.028733 1.475000 -0.005716
v -5.971265 1.475000 -2.005715
v -5.971265 1.475000 -1.994285
v -0.028733 1.475000 0.005715
v -5.379466 1.249879 -1.805715
v -0.031187 1.499879 -0.005716
v -1.219693 1.099879 -0.405716
v -1.813946 0.949879 -0.605716
v -1.219693 1.099879 -0.394285
v -3.596706 0.899879 -1.194285
v -4.785212 1.099879 -1.594285
v -0.625440 1.249879 -0.205716
v -2.408200 0.899879 -0.805716
v -3.596706 0.899879 -1.205716
v -4.190959 0.949879 -1.405715
v -0.031187 1.499879 0.005715
v -1.813946 0.949879 -0.594285
v -2.408200 0.899879 -0.794285
v -3.002453 0.849879 -0.994285
v -5.973719 1.499879 -2.005715
v -3.002453 0.849879 -1.005716
v -4.785212 1.099879 -1.605715
v -0.625440 1.249879 -0.194285
v -4.190959 0.949879 -1.394285
v -5.379466 1.249879 -1.794285
v -5.973719 1.499879 -1.994285
v -5.971265 1.475000 -2.001905
v -5.971265 1.475000 -1.998095
v -5.575097 1.308333 -1.872382
v -5.773181 1.391666 -1.939049
v -5.575097 1.308333 -1.860951
v -5.773181 1.391666 -1.927618
v -5.377012 1.225000 -1.801905
v -5.377012 1.225000 -1.798095
v -4.980843 1.125000 -1.672382
v -5.178927 1.175000 -1.739049
v -4.980843 1.125000 -1.660951
v -5.178927 1.175000 -1.727618
v -5.771083 1.119562 -1.894285
v -5.771083 1.119562 -1.905715
v -4.386590 0.975000 -1.472382
v -4.584674 1.025000 -1.539049
v -4.386590 0.975000 -1.460951
v -4.584674 1.025000 -1.527618
v -5.141070 0.907603 -1.694285
v -5.141070 0.907603 -1.705715
v -3.792337 0.891667 -1.272382
v -3.990421 0.908333 -1.339049
v -3.792337 0.891667 -1.260951
v -3.990421 0.908333 -1.327618
v -3.198084 0.841667 -1.072382
v -3.396168 0.858333 -1.139049
v -3.198084 0.841667 -1.060951
v -3.396168 0.858333 -1.127618
v -3.912340 0.650880 -1.294285
v -3.912340 0.650880 -1.305716
v -2.603831 0.858333 -0.872382
v -2.801915 0.841667 -0.939049
v -2.603831 0.858333 -0.860951
v -2.801915 0.841667 -0.927618
v -3.318087 0.600880 -1.094285
v -3.318087 0.600880 -1.105716
v -2.009577 0.908333 -0.672382
v -2.207662 0.891667 -0.739049
v -2.009577 0.908333 -0.660951
v -2.207662 0.891667 -0.727618
v -1.415324 1.025000 -0.472382
v -1.613409 0.975000 -0.539049
v -1.415324 1.025000 -0.460951
v -1.613409 0.975000 -0.527618
v -2.087659 0.650880 -0.694285
v -2.087659 0.650880 -0.705716
v -0.821071 1.175000 -0.272382
v -1.019155 1.125000 -0.339049
v -0.821071 1.175000 -0.260951
v -1.019155 1.125000 -0.327618
v -1.453181 0.757603 -0.494285
v -1.453181 0.757603 -0.505716
v -0.226818 1.391667 -0.072383
v -0.424902 1.308333 -0.139049
v -0.226818 1.391667 -0.060951
v -0.424902 1.308333 -0.127618
v -0.228915 1.119562 -0.105716
v -0.228915 1.119562 -0.094285
v -2.681912 0.600880 -0.905716
v -2.681912 0.600880 -0.894285
v -4.546818 0.757603 -1.505715
v -4.546818 0.757603 -1.494285
vn 0.0000 0.0000 -1.0000
vn 0.0492 -0.9988 0.0000
vn 1.0000 0.0000 0.0000
vn -1.0000 0.0000 0.0000
vn 0.3008 0.0759 -0.9507
vn -0.3008 -0.0759 0.9507
vn 0.2731 -0.1149 -0.9551
vn -0.2731 0.1149 0.9551
vn 0.8050 -0.5933 0.0000
vn -0.9901 -0.1402 0.0000
vn -0.9570 -0.2902 0.0000
vn 0.8950 -0.4461 0.0000
vn 0.3168 -0.0267 -0.9481
vn -0.3168 0.0267 0.9481
vn -0.8950 -0.4461 0.0000
vn 0.9570 -0.2902 0.0000
vn 0.3168 0.0267 -0.9481
vn -0.3168 -0.0267 0.9481
vn -0.8050 -0.5933 0.0000
vn 0.9901 -0.1402 0.0000
vn 0.6937 -0.7202 0.0000
vn -1.0000 -0.0077 0.0000
vn 0.3008 -0.0759 -0.9507
vn -0.3008 0.0759 0.9507
vn 0.3165 0.0312 -0.9481
vn -0.3261 -0.0322 0.9448
vn 0.3118 0.0308 -0.9496
vn -0.3212 -0.0317 0.9465
vn -0.0492 0.9988 0.0000
vn 0.3074 0.0303 -0.9511
vn -0.3165 -0.0312 0.9481
vn -0.3311 -0.0327 0.9430
vn 0.3311 0.0327 -0.9430
vn 0.0000 0.0000 1.0000
vn -0.3118 -0.0308 0.9496
vn -0.3074 -0.0303 0.9511
vn 0.3261 0.0322 -0.9448
vn 0.3212 0.0317 -0.9465
vn 0.3878 -0.9218 0.0000
vn 0.2447 0.9696 0.0000
vn 0.0838 0.9965 0.0000
vn -0.0838 0.9965 0.0000
vn 0.0838 -0.9965 0.0000
vn -0.2447 0.9696 0.0000
vn -0.3878 0.9218 0.0000
vn 0.3878 0.9218 0.0000
vn 0.2447 -0.9696 0.0000
vn -0.0838 -0.9965 0.0000
vn -0.2447 -0.9696 0.0000
vn -0.3878 -0.9218 0.0000
vn -0.3261 -0.0321 0.9448
vn -0.3311 -0.0326 0.9430
vn 0.3311 0.0326 -0.9430
vn 0.3261 0.0321 -0.9448
vn -0.2448 -0.9696 0.0000
vn -0.3878 -0.9217 0.0000
vn -0.6937 -0.7202 0.0000
vn 1.0000 -0.0077 0.0000
vn -0.2731 -0.1149 0.9551
vn 0.2731 0.1149 -0.9551
g Cube_Cube_Material
usemtl Material
s off
f 6//1 27//1 50//1
f 6//2 44//2 3//2
f 3//1 26//1 44//1
f 6//3 52//3 51//3
f 5//4 28//4 4//4
f 6//2 50//2 44//2
f 26//3 3//3 51//3
f 3//3 6//3 51//3
f 6//3 27//3 52//3
f 5//4 25//4 28//4
g Cube_Cube_Material.002
usemtl Material.002
f 98//5 97//5 2//5
f 1//6 99//6 100//6
f 64//7 54//7 53//7
f 55//8 56//8 63//8
f 112//9 65//9 67//9
f 68//10 111//10 112//10
f 78//11 86//11 85//11
f 85//12 75//12 77//12
f 86//13 76//13 75//13
f 77//14 78//14 85//14
f 90//15 96//15 95//15
f 95//16 87//16 89//16
f 96//17 88//17 87//17
f 89//18 90//18 95//18
f 2//19 100//19 98//19
f 97//20 1//20 2//20
f 53//21 63//21 64//21
f 64//22 56//22 54//22
f 66//23 65//23 111//23
f 112//24 67//24 68//24
f 112//9 111//9 65//9
f 68//10 66//10 111//10
f 78//11 76//11 86//11
f 85//12 86//12 75//12
f 90//15 88//15 96//15
f 95//16 96//16 87//16
f 2//19 1//19 100//19
f 97//20 99//20 1//20
f 53//21 55//21 63//21
f 64//22 63//22 56//22
g Cube_Cube_Material.005
usemtl Material.005
f 88//25 32//25 87//25
f 48//26 35//26 68//26
f 91//27 92//27 32//27
f 34//28 48//28 74//28
f 97//27 98//27 31//27
f 78//28 77//28 43//28
f 30//29 4//29 5//29
f 103//30 104//30 36//30
f 84//31 83//31 42//31
f 56//32 55//32 49//32
f 90//31 89//31 41//31
f 53//33 54//33 29//33
f 28//34 4//34 40//34
f 93//35 33//35 41//35
f 99//35 47//35 33//35
f 105//36 40//36 47//36
f 59//37 60//37 46//37
f 65//37 66//37 39//37
f 25//1 30//1 5//1
f 71//38 72//38 38//38
f 75//38 76//38 45//38
f 16//39 104//39 106//39
f 82//25 37//25 81//25
f 62//26 61//26 35//26
f 49//40 46//40 29//40
f 35//40 39//40 46//40
f 48//41 38//41 39//41
f 34//41 45//41 38//41
f 43//42 37//42 45//42
f 32//43 42//43 37//43
f 41//44 31//44 32//44
f 33//44 36//44 31//44
f 30//45 47//45 40//45
f 50//46 29//46 44//46
f 7//47 99//47 97//47
f 8//47 93//47 91//47
f 9//43 89//43 87//43
f 10//43 83//43 81//43
f 11//48 77//48 75//48
f 12//48 73//48 71//48
f 13//49 67//49 65//49
f 14//49 61//49 59//49
f 54//50 27//50 26//50
f 60//49 24//49 58//49
f 66//49 23//49 14//49
f 72//48 22//48 13//48
f 76//48 21//48 12//48
f 82//43 20//43 11//43
f 88//43 19//43 10//43
f 92//47 18//47 9//47
f 98//47 17//47 8//47
f 25//45 105//45 28//45
f 15//50 55//50 53//50
f 88//25 10//25 37//25
f 37//25 32//25 88//25
f 32//25 9//25 87//25
f 35//51 23//51 68//51
f 68//26 67//26 48//26
f 67//51 22//51 48//51
f 92//27 9//27 32//27
f 32//27 31//27 91//27
f 31//27 8//27 91//27
f 48//28 22//28 74//28
f 74//28 73//28 34//28
f 73//28 21//28 34//28
f 98//27 8//27 31//27
f 31//27 36//27 97//27
f 36//27 7//27 97//27
f 34//28 21//28 78//28
f 77//28 20//28 43//28
f 34//28 78//28 43//28
f 30//29 40//29 4//29
f 104//30 7//30 36//30
f 36//30 30//30 103//30
f 30//30 25//30 103//30
f 43//31 20//31 84//31
f 83//31 19//31 42//31
f 43//31 84//31 42//31
f 50//32 27//32 56//32
f 55//32 24//32 49//32
f 50//52 56//52 49//52
f 42//31 19//31 90//31
f 89//31 18//31 41//31
f 42//31 90//31 41//31
f 54//33 26//33 44//33
f 44//53 29//53 54//53
f 29//33 15//33 53//33
f 41//35 18//35 94//35
f 93//35 17//35 33//35
f 41//35 94//35 93//35
f 33//35 17//35 100//35
f 99//35 16//35 47//35
f 33//35 100//35 99//35
f 47//36 16//36 106//36
f 105//36 28//36 40//36
f 47//36 106//36 105//36
f 60//37 15//37 29//37
f 29//37 46//37 60//37
f 46//37 14//37 59//37
f 66//54 14//54 46//54
f 46//37 39//37 66//37
f 39//54 13//54 65//54
f 72//38 13//38 39//38
f 39//38 38//38 72//38
f 38//38 12//38 71//38
f 76//38 12//38 38//38
f 38//38 45//38 76//38
f 45//38 11//38 75//38
f 16//39 7//39 104//39
f 82//25 11//25 45//25
f 45//25 37//25 82//25
f 37//25 10//25 81//25
f 49//26 24//26 62//26
f 61//26 23//26 35//26
f 49//26 62//26 35//26
f 49//40 35//40 46//40
f 35//40 48//40 39//40
f 48//41 34//41 38//41
f 34//41 43//41 45//41
f 43//42 42//42 37//42
f 32//43 41//43 42//43
f 41//44 33//44 31//44
f 33//44 47//44 36//44
f 30//45 36//45 47//45
f 50//46 49//46 29//46
f 7//47 16//47 99//47
f 8//47 17//47 93//47
f 9//43 18//43 89//43
f 10//43 19//43 83//43
f 11//48 20//48 77//48
f 12//48 21//48 73//48
f 13//49 22//49 67//49
f 14//49 23//49 61//49
f 54//50 56//50 27//50
f 57//55 15//55 60//55
f 60//49 62//49 24//49
f 58//49 57//49 60//49
f 66//49 68//49 23//49
f 72//48 74//48 22//48
f 76//48 78//48 21//48
f 82//43 84//43 20//43
f 88//43 90//43 19//43
f 92//47 94//47 18//47
f 98//47 100//47 17//47
f 25//45 103//45 105//45
f 15//56 24//56 55//56
g Cube_Cube_Material.006
usemtl Material.006
f 62//10 70//10 69//10
f 69//9 59//9 61//9
f 61//24 62//24 69//24
f 70//23 60//23 59//23
f 79//12 71//12 73//12
f 74//11 80//11 79//11
f 73//14 74//14 79//14
f 80//13 72//13 71//13
f 110//16 81//16 83//16
f 84//15 109//15 110//15
f 102//19 94//19 92//19
f 91//20 101//20 102//20
f 102//5 92//5 91//5
f 93//6 94//6 101//6
f 107//57 106//57 104//57
f 103//58 108//58 107//58
f 108//59 105//59 106//59
f 104//60 103//60 107//60
f 83//18 84//18 110//18
f 109//17 82//17 81//17
f 62//10 60//10 70//10
f 69//9 70//9 59//9
f 79//12 80//12 71//12
f 74//11 72//11 80//11
f 110//16 109//16 81//16
f 84//15 82//15 109//15
f 102//19 101//19 94//19
f 91//20 93//20 101//20
f 107//57 108//57 106//57
f 103//58 105//58 108//58
