# Blender v2.79 (sub 0) OBJ File: 'SoloFlags45.blend'
# www.blender.org
mtllib SFlags45.mtl
o Cube
v 0.028734 1.475000 0.001905
v 0.028734 1.475000 -0.001905
v -5.983723 1.500000 -5.975641
v -5.975640 1.500000 -5.983725
v -5.516832 1.300000 -5.508751
v -5.049942 1.150000 -5.041862
v -4.583054 1.100000 -4.574973
v -4.116164 1.050000 -4.108083
v -3.649275 1.050000 -3.641194
v -5.508750 1.300000 -5.516834
v -5.041860 1.150000 -5.049944
v -4.574971 1.100000 -4.583055
v -4.108082 1.050000 -4.116166
v -3.641192 1.050000 -3.649277
v -5.975640 1.475000 -5.983725
v -5.983723 1.475000 -5.975641
v -5.516832 1.275000 -5.508751
v -5.049942 1.125000 -5.041862
v -4.583054 1.075000 -4.574973
v -4.116164 1.025000 -4.108083
v -3.649275 1.025000 -3.641194
v -5.508750 1.275000 -5.516834
v -5.041860 1.125000 -5.049944
v -4.574971 1.075000 -4.583055
v -4.108082 1.025000 -4.116166
v -3.641192 1.025000 -3.649277
v -5.828092 1.408333 -5.820011
v -5.672463 1.341667 -5.664382
v -5.820009 1.408333 -5.828094
v -5.664380 1.341667 -5.672465
v -5.361202 1.225000 -5.353121
v -5.205573 1.175000 -5.197492
v -5.353119 1.225000 -5.361204
v -5.197490 1.175000 -5.205575
v -4.894312 1.108333 -4.886231
v -4.738683 1.091667 -4.730602
v -4.886230 1.108333 -4.894314
v -4.730600 1.091667 -4.738685
v -4.427423 1.058333 -4.419343
v -4.271794 1.041667 -4.263713
v -4.419341 1.058333 -4.427425
v -4.263711 1.041667 -4.271796
v -3.960535 1.025000 -3.952453
v -3.804905 1.025000 -3.796824
v -3.952452 1.025000 -3.960536
v -3.796822 1.025000 -3.804906
v -5.801524 1.135736 -5.793443
v -5.793441 1.135736 -5.801526
v -5.322550 0.956212 -5.314469
v -5.314467 0.956212 -5.322552
v -4.829846 0.850714 -4.821765
v -4.821763 0.850714 -4.829847
v -4.362957 0.800714 -4.354876
v -4.354875 0.800714 -4.362959
v -3.882719 0.775000 -3.874638
v -3.874637 0.775000 -3.882721
v -0.016276 1.500000 -0.024361
v -0.024360 1.500000 -0.016276
v -3.174303 1.025000 -3.182388
v -3.182385 1.025000 -3.174305
v -3.174303 1.050000 -3.182388
v -3.182385 1.050000 -3.174305
v -3.493645 1.025000 -3.485564
v -3.338015 1.025000 -3.329935
v -2.584168 0.775000 -2.592250
v -2.592250 0.775000 -2.584167
v -2.506353 1.025000 -2.514435
v -2.661983 1.025000 -2.670065
v -2.514436 1.025000 -2.506352
v -2.670066 1.025000 -2.661982
v -3.485562 1.025000 -3.493647
v -2.817613 1.025000 -2.825695
v -3.329932 1.025000 -3.338017
v -2.825695 1.025000 -2.817612
v -3.415830 0.775000 -3.407749
v -2.817613 1.050000 -2.825695
v -3.407747 0.775000 -3.415832
v -2.825695 1.050000 -2.817612
v -2.358806 1.050000 -2.350723
v -1.891917 1.050000 -1.883834
v -1.425027 1.100000 -1.416945
v -0.958138 1.150000 -0.950055
v -0.491249 1.300000 -0.483166
v -2.350723 1.050000 -2.358806
v -1.883834 1.050000 -1.891917
v -1.416945 1.100000 -1.425027
v -0.950055 1.150000 -0.958138
v -0.483165 1.300000 -0.491250
v -0.016276 1.475000 -0.024361
v -0.024360 1.475000 -0.016276
v -0.491249 1.275000 -0.483166
v -2.358806 1.025000 -2.350723
v -1.891917 1.025000 -1.883834
v -1.425027 1.075000 -1.416945
v -0.958138 1.125000 -0.950055
v -0.483165 1.275000 -0.491250
v -2.350723 1.025000 -2.358806
v -1.883834 1.025000 -1.891917
v -1.416945 1.075000 -1.425027
v -0.950055 1.125000 -0.958138
v -2.203176 1.025000 -2.195093
v -2.047546 1.025000 -2.039464
v -2.195093 1.025000 -2.203176
v -2.039464 1.025000 -2.047546
v -1.736287 1.041667 -1.728204
v -1.580657 1.058333 -1.572574
v -1.728204 1.041667 -1.736287
v -1.572574 1.058333 -1.580657
v -1.269398 1.091666 -1.261315
v -1.113768 1.108333 -1.105685
v -1.261315 1.091666 -1.269398
v -1.105685 1.108333 -1.113768
v -0.802508 1.175000 -0.794425
v -0.646879 1.225000 -0.638796
v -0.794425 1.175000 -0.802508
v -0.638795 1.225000 -0.646879
v -0.335619 1.341666 -0.327536
v -0.179989 1.408333 -0.171906
v -0.327536 1.341666 -0.335620
v -0.171906 1.408333 -0.179990
v -2.125361 0.775000 -2.117278
v -2.117278 0.775000 -2.125361
v -1.645124 0.800714 -1.637042
v -1.637042 0.800714 -1.645124
v -1.178234 0.850714 -1.170152
v -1.170152 0.850714 -1.178234
v -0.685532 0.956212 -0.677449
v -0.677448 0.956212 -0.685532
v -0.206557 1.135735 -0.198474
v -0.198474 1.135735 -0.206558
v -3.004670 0.775000 -2.996586
v -3.074403 1.025000 -3.082484
v -2.918772 1.025000 -2.926854
v -3.082485 1.025000 -3.074401
v -2.926855 1.025000 -2.918771
v -2.996588 0.775000 -3.004668
v -3.043277 1.050000 -3.051358
v -2.996588 1.050000 -3.004669
v -2.949898 1.050000 -2.957980
v -3.051359 1.050000 -3.043275
v -3.004670 1.050000 -2.996586
v -2.957981 1.050000 -2.949897
v -3.167781 1.050000 -3.175861
v -3.152218 1.050000 -3.160298
v -2.840957 1.050000 -2.849039
v -2.825394 1.050000 -2.833476
v -3.175863 1.050000 -3.167778
v -3.160300 1.050000 -3.152215
v -2.849040 1.050000 -2.840957
v -2.833478 1.050000 -2.825394
v -3.175562 1.050000 -3.183643
v -3.183645 1.050000 -3.175560
v -3.175562 1.025000 -3.183643
v -3.183645 1.025000 -3.175560
vn -0.7071 0.0000 -0.7071
vn 0.7071 0.0000 0.7071
vn 0.6235 -0.4718 0.6235
vn -0.7071 -0.0000 0.7071
vn 0.7071 -0.0000 -0.7071
vn -0.6666 -0.3336 -0.6666
vn 0.5640 -0.6032 0.5640
vn -0.6929 -0.1993 -0.6929
vn 0.6666 -0.3336 0.6666
vn -0.6235 -0.4718 -0.6235
vn 0.6929 -0.1993 0.6929
vn -0.5640 -0.6031 -0.5640
vn 0.6472 -0.4029 0.6472
vn -0.6472 -0.4029 -0.6472
vn 0.6234 -0.4718 0.6235
vn 0.5640 -0.6031 0.5640
vn 0.0000 -1.0000 0.0000
vn -0.7071 0.0000 0.7072
vn 0.0000 1.0000 0.0000
vn 0.0534 0.9971 0.0534
vn 0.1566 0.9752 0.1566
vn 0.2050 0.9571 0.2050
vn -0.0534 -0.9971 -0.0534
vn -0.1566 -0.9752 -0.1567
vn -0.2050 -0.9571 -0.2050
vn 0.7071 0.0001 -0.7071
vn -0.1567 -0.9752 -0.1566
vn 0.6235 -0.4717 0.6235
vn -0.7005 -0.1365 -0.7005
vn 0.5291 -0.6633 0.5292
vn -0.2050 0.9571 -0.2050
vn -0.1566 0.9752 -0.1566
vn -0.0534 0.9971 -0.0534
vn 0.2050 -0.9571 0.2050
vn 0.1566 -0.9752 0.1566
vn 0.0534 -0.9971 0.0534
vn 0.7005 -0.1365 0.7005
vn -0.5292 -0.6633 -0.5292
vn 0.0000 0.0000 1.0000
vn 0.0000 -0.9487 -0.3162
vn -0.1566 -0.9752 -0.1566
vn -0.6665 -0.3336 -0.6667
vn 0.5292 -0.6633 0.5292
vn 0.0000 -0.9701 0.2425
vn 0.0000 0.9937 -0.1122
vn 0.0000 0.0767 0.9971
g Cube_Cube_Material
usemtl Material
s off
f 4//1 16//1 3//1
f 58//2 89//2 57//2
f 4//1 15//1 16//1
f 58//2 90//2 89//2
g Cube_Cube_Material.002
usemtl Material.002
f 42//3 53//3 54//3
f 32//4 31//4 49//4
f 40//4 39//4 53//4
f 54//5 41//5 42//5
f 50//5 33//5 34//5
f 54//6 39//6 41//6
f 32//7 50//7 34//7
f 33//8 49//8 31//8
f 106//9 124//9 108//9
f 107//10 123//10 105//10
f 114//11 128//11 116//11
f 115//12 127//12 113//12
f 106//4 105//4 123//4
f 114//4 113//4 127//4
f 128//5 115//5 116//5
f 124//5 107//5 108//5
f 67//13 66//13 65//13
f 65//14 70//14 68//14
f 69//4 70//4 66//4
f 65//5 68//5 67//5
f 73//13 75//13 77//13
f 77//14 63//14 71//14
f 64//4 63//4 75//4
f 77//5 71//5 73//5
f 42//15 40//15 53//15
f 54//6 53//6 39//6
f 32//16 49//16 50//16
f 33//8 50//8 49//8
f 106//9 123//9 124//9
f 107//10 124//10 123//10
f 114//11 127//11 128//11
f 115//12 128//12 127//12
f 67//13 69//13 66//13
f 65//14 66//14 70//14
f 73//13 64//13 75//13
f 77//14 75//14 63//14
g Cube_Cube_Material.005
usemtl Material.005
f 70//17 72//17 68//17
f 73//17 60//17 64//17
f 144//5 138//5 132//5
f 141//4 148//4 134//4
f 70//17 74//17 72//17
f 73//17 59//17 60//17
f 146//5 76//5 72//5
f 133//5 132//5 138//5
f 132//5 153//5 144//5
f 143//5 153//5 151//5
f 146//5 72//5 145//5
f 72//5 133//5 145//5
f 138//5 139//5 133//5
f 139//5 145//5 133//5
f 153//5 143//5 144//5
f 135//4 74//4 149//4
f 74//18 78//18 150//18
f 150//4 149//4 74//4
f 149//4 142//4 135//4
f 135//4 142//4 141//4
f 152//4 154//4 147//4
f 154//4 134//4 148//4
f 147//4 154//4 148//4
f 134//4 135//4 141//4
g Cube_Cube_Material.006
usemtl Material.006
f 14//19 8//19 9//19
f 13//20 7//20 8//20
f 12//20 6//20 7//20
f 6//21 10//21 5//21
f 3//22 10//22 4//22
f 43//17 25//17 45//17
f 19//23 41//23 39//23
f 18//23 37//23 35//23
f 31//24 22//24 33//24
f 22//25 28//25 30//25
f 14//5 46//5 45//5
f 27//4 28//4 5//4
f 31//4 32//4 6//4
f 10//5 30//5 29//5
f 6//4 18//4 35//4
f 11//26 34//26 33//26
f 39//4 40//4 8//4
f 12//5 38//5 37//5
f 8//4 43//4 44//4
f 13//5 42//5 41//5
f 29//25 16//25 15//25
f 32//27 23//27 18//27
f 36//23 24//23 19//23
f 20//23 42//23 25//23
f 46//13 55//13 56//13
f 56//14 43//14 45//14
f 28//4 27//4 47//4
f 36//4 35//4 51//4
f 44//4 43//4 55//4
f 56//5 45//5 46//5
f 52//5 37//5 38//5
f 48//5 29//5 30//5
f 37//6 51//6 35//6
f 38//28 51//28 52//28
f 29//29 47//29 27//29
f 47//30 30//30 28//30
f 57//31 83//31 58//31
f 88//32 82//32 83//32
f 87//33 81//33 82//33
f 86//33 80//33 81//33
f 85//19 79//19 80//19
f 119//34 91//34 96//34
f 113//35 100//35 115//35
f 109//36 99//36 111//36
f 105//36 98//36 107//36
f 85//5 104//5 103//5
f 81//4 94//4 109//4
f 83//4 117//4 118//4
f 86//5 99//5 108//5
f 82//4 113//4 114//4
f 87//5 100//5 112//5
f 120//5 119//5 88//5
f 116//5 115//5 87//5
f 79//4 101//4 102//4
f 80//4 93//4 105//4
f 102//17 98//17 93//17
f 94//36 108//36 99//36
f 110//36 100//36 95//36
f 114//35 96//35 91//35
f 104//13 121//13 122//13
f 89//34 118//34 120//34
f 111//10 125//10 109//10
f 110//9 126//9 112//9
f 118//37 130//37 120//37
f 130//38 117//38 119//38
f 122//14 101//14 103//14
f 102//4 101//4 121//4
f 110//4 109//4 125//4
f 118//4 117//4 129//4
f 130//5 119//5 120//5
f 126//5 111//5 112//5
f 122//5 103//5 104//5
f 79//19 76//19 78//19
f 84//5 67//5 68//5
f 78//4 70//4 69//4
f 61//19 9//19 62//19
f 61//5 73//5 71//5
f 9//4 63//4 64//4
f 142//39 141//39 140//39
f 136//14 134//14 132//14
f 135//13 136//13 133//13
f 135//4 134//4 131//4
f 60//2 61//2 62//2
f 144//19 137//19 139//19
f 148//19 137//19 144//19
f 76//1 74//1 78//1
f 136//5 132//5 133//5
f 149//19 150//19 145//19
f 139//19 141//19 142//19
f 138//19 140//19 141//19
f 78//40 147//40 152//40
f 147//17 149//17 148//17
f 76//39 143//39 146//39
f 146//19 144//19 145//19
f 154//17 72//17 74//17
f 151//1 154//1 152//1
f 14//19 13//19 8//19
f 13//20 12//20 7//20
f 12//20 11//20 6//20
f 6//21 11//21 10//21
f 3//22 5//22 10//22
f 43//17 20//17 25//17
f 19//23 24//23 41//23
f 18//23 23//23 37//23
f 31//41 17//41 22//41
f 22//25 17//25 28//25
f 25//5 13//5 45//5
f 13//5 14//5 45//5
f 14//5 26//5 46//5
f 17//4 5//4 28//4
f 5//4 3//4 27//4
f 3//4 16//4 27//4
f 18//4 6//4 32//4
f 6//4 5//4 31//4
f 5//4 17//4 31//4
f 15//5 4//5 29//5
f 4//5 10//5 29//5
f 10//5 22//5 30//5
f 19//4 7//4 36//4
f 7//4 6//4 35//4
f 36//4 7//4 35//4
f 22//5 10//5 33//5
f 10//5 11//5 33//5
f 11//5 23//5 34//5
f 20//4 8//4 40//4
f 8//4 7//4 39//4
f 7//4 19//4 39//4
f 23//5 11//5 37//5
f 11//5 12//5 37//5
f 12//5 24//5 38//5
f 21//4 9//4 44//4
f 9//4 8//4 44//4
f 8//4 20//4 43//4
f 24//5 12//5 41//5
f 12//5 13//5 41//5
f 13//5 25//5 42//5
f 29//25 27//25 16//25
f 32//24 34//24 23//24
f 36//23 38//23 24//23
f 20//23 40//23 42//23
f 46//13 44//13 55//13
f 56//14 55//14 43//14
f 37//42 52//42 51//42
f 38//15 36//15 51//15
f 29//29 48//29 47//29
f 47//43 48//43 30//43
f 57//31 88//31 83//31
f 88//32 87//32 82//32
f 87//33 86//33 81//33
f 86//33 85//33 80//33
f 85//19 84//19 79//19
f 119//34 117//34 91//34
f 113//35 95//35 100//35
f 109//36 94//36 99//36
f 105//36 93//36 98//36
f 97//5 84//5 103//5
f 84//5 85//5 103//5
f 85//5 98//5 104//5
f 95//4 82//4 110//4
f 82//4 81//4 110//4
f 110//4 81//4 109//4
f 90//4 58//4 118//4
f 58//4 83//4 118//4
f 83//4 91//4 117//4
f 98//5 85//5 107//5
f 85//5 86//5 108//5
f 107//5 85//5 108//5
f 91//4 83//4 114//4
f 83//4 82//4 114//4
f 82//4 95//4 113//4
f 99//5 86//5 111//5
f 86//5 87//5 112//5
f 111//5 86//5 112//5
f 96//5 88//5 119//5
f 88//5 57//5 120//5
f 57//5 89//5 120//5
f 100//5 87//5 115//5
f 87//5 88//5 116//5
f 88//5 96//5 116//5
f 93//4 80//4 102//4
f 80//4 79//4 102//4
f 79//4 92//4 101//4
f 94//4 81//4 106//4
f 81//4 80//4 106//4
f 106//4 80//4 105//4
f 102//17 104//17 98//17
f 94//36 106//36 108//36
f 110//36 112//36 100//36
f 114//35 116//35 96//35
f 104//13 102//13 121//13
f 89//34 90//34 118//34
f 111//10 126//10 125//10
f 110//9 125//9 126//9
f 118//37 129//37 130//37
f 130//38 129//38 117//38
f 122//14 121//14 101//14
f 79//19 84//19 76//19
f 72//5 76//5 68//5
f 76//5 84//5 68//5
f 84//5 97//5 67//5
f 92//4 79//4 69//4
f 79//4 78//4 69//4
f 78//4 74//4 70//4
f 61//19 14//19 9//19
f 26//5 14//5 71//5
f 14//5 61//5 71//5
f 61//5 59//5 73//5
f 60//4 62//4 64//4
f 62//4 9//4 64//4
f 9//4 21//4 63//4
f 140//39 148//39 149//39
f 149//19 142//19 140//19
f 136//14 131//14 134//14
f 135//13 131//13 136//13
f 60//2 59//2 61//2
f 139//17 145//17 144//17
f 137//39 138//39 139//39
f 144//19 143//19 148//19
f 143//19 151//19 147//19
f 148//19 143//19 147//19
f 151//19 152//19 147//19
f 148//19 140//19 137//19
f 76//1 72//1 74//1
f 76//19 146//19 78//19
f 146//19 145//19 150//19
f 78//19 146//19 150//19
f 145//19 139//19 149//19
f 139//19 142//19 149//19
f 139//19 138//19 141//19
f 138//19 137//19 140//19
f 78//44 150//44 147//44
f 147//45 150//45 149//45
f 76//46 151//46 143//46
f 146//40 143//40 144//40
f 154//17 153//17 72//17
f 151//1 153//1 154//1
l 2 1
