# Blender v2.79 (sub 0) OBJ File: '5T.blend'
# www.blender.org
mtllib 5T.mtl
o Cube
v 1.000000 -1.000000 -1.000000
v 1.000000 -1.000000 1.000000
v -1.000000 -1.000000 1.000000
v -1.000000 -1.000000 -1.000000
v 1.000000 1.000000 -0.999999
v 0.999999 1.000000 1.000001
v -1.000000 1.000000 1.000000
v -1.000000 1.000000 -1.000000
v 1.000000 1.000000 -0.199999
v 1.000000 1.000000 0.200001
v 0.200000 1.000000 -1.000000
v -0.200000 1.000000 -1.000000
v -0.600000 1.000000 -1.000000
v 0.600000 1.000000 -0.200000
v 0.600000 1.000000 0.200000
v 0.200000 1.000000 -0.600000
v 0.200000 1.000000 -0.200000
v 0.200000 1.000000 0.200000
v -0.200000 1.000000 -0.600000
v -0.200000 1.000000 -0.200000
v -0.200000 1.000000 0.200000
vn 0.0000 1.0000 0.0000
vn 0.0000 -1.0000 0.0000
vn 1.0000 0.0000 0.0000
vn 0.0000 -0.0000 1.0000
vn 0.0000 0.0000 -1.0000
vn -1.0000 -0.0000 -0.0000
g Cube_Cube_Material.001
usemtl Material.001
s off
f 18//1 15//1 17//1
f 15//1 10//1 9//1
f 9//1 14//1 15//1
f 14//1 17//1 15//1
f 16//1 11//1 12//1
f 17//1 16//1 19//1
f 16//1 12//1 19//1
f 19//1 20//1 17//1
f 20//1 21//1 17//1
f 21//1 18//1 17//1
g Cube_Cube_Material.002
usemtl Material.002
f 2//2 4//2 1//2
f 10//3 6//3 2//3
f 6//4 3//4 2//4
f 12//5 11//5 1//5
f 16//1 14//1 5//1
f 3//6 8//6 4//6
f 7//1 18//1 21//1
f 2//2 3//2 4//2
f 2//3 1//3 9//3
f 1//3 5//3 9//3
f 9//3 10//3 2//3
f 6//4 7//4 3//4
f 11//5 5//5 1//5
f 1//5 4//5 12//5
f 4//5 8//5 13//5
f 13//5 12//5 4//5
f 11//1 16//1 5//1
f 16//1 17//1 14//1
f 14//1 9//1 5//1
f 3//6 7//6 8//6
f 13//1 8//1 20//1
f 8//1 7//1 20//1
f 7//1 6//1 18//1
f 6//1 10//1 15//1
f 18//1 6//1 15//1
f 21//1 20//1 7//1
f 20//1 19//1 13//1
f 19//1 12//1 13//1
