# Blender v2.79 (sub 0) OBJ File: 'BlackCubeTee.blend'
# www.blender.org
mtllib BlackCubeTee.mtl
o Cube
v 1.000000 1.000000 -1.000000
v 1.000000 -1.000000 -1.000000
v 1.000000 1.000000 1.000000
v 1.000000 -1.000000 1.000000
v -1.000000 1.000000 -1.000000
v -1.000000 -1.000000 -1.000000
v -1.000000 1.000000 1.000000
v -1.000000 -1.000000 1.000000
v 0.777778 1.000000 1.000000
v 0.555556 1.000000 1.000000
v 0.333333 1.000000 1.000000
v 0.111111 1.000000 1.000000
v -0.111111 1.000000 1.000000
v -0.333333 1.000000 1.000000
v -0.555556 1.000000 1.000000
v -0.777778 1.000000 1.000000
v -0.777778 1.000000 -1.000000
v -0.555556 1.000000 -1.000000
v -0.333333 1.000000 -1.000000
v -0.111111 1.000000 -1.000000
v 0.111111 1.000000 -1.000000
v 0.333333 1.000000 -1.000000
v 0.555556 1.000000 -1.000000
v 0.777778 1.000000 -1.000000
v 1.000000 1.000000 -0.777778
v 1.000000 1.000000 -0.555556
v 1.000000 1.000000 -0.333333
v 1.000000 1.000000 -0.111111
v 1.000000 1.000000 0.111111
v 1.000000 1.000000 0.333333
v 1.000000 1.000000 0.555556
v 1.000000 1.000000 0.777778
v -1.000000 1.000000 0.777778
v -1.000000 1.000000 0.555556
v -1.000000 1.000000 0.333333
v -1.000000 1.000000 0.111111
v -1.000000 1.000000 -0.111111
v -1.000000 1.000000 -0.333333
v -1.000000 1.000000 -0.555556
v -1.000000 1.000000 -0.777778
v 0.777778 1.000000 -0.111111
v 0.777778 1.000000 0.111111
v 0.555556 1.000000 -0.111111
v 0.555556 1.000000 0.111111
v 0.333333 1.000000 -0.111111
v 0.333333 1.000000 0.111111
v 0.111111 1.000000 -0.777778
v 0.111111 1.000000 -0.555556
v 0.111111 1.000000 -0.333333
v 0.111111 1.000000 -0.111111
v 0.111111 1.000000 0.111111
v 0.111111 1.000000 0.333333
v 0.111111 1.000000 0.555556
v 0.111111 1.000000 0.777778
v -0.111111 1.000000 -0.777778
v -0.111111 1.000000 -0.555556
v -0.111111 1.000000 -0.333333
v -0.111111 1.000000 -0.111111
v -0.111111 1.000000 0.111111
v -0.111111 1.000000 0.333333
v -0.111111 1.000000 0.555556
v -0.111111 1.000000 0.777778
vn 0.0000 -1.0000 0.0000
vn 0.0000 0.0000 1.0000
vn 1.0000 0.0000 0.0000
vn 0.0000 0.0000 -1.0000
vn -1.0000 0.0000 0.0000
vn 0.0000 1.0000 0.0000
g Cube_Cube_Material.001
usemtl Material.001
s off
f 2//1 8//1 6//1
f 12//2 13//2 8//2
f 28//3 29//3 4//3
f 20//4 21//4 2//4
f 36//5 37//5 6//5
f 43//6 26//6 23//6
f 11//6 10//6 53//6
f 60//6 59//6 35//6
f 2//1 4//1 8//1
f 8//2 4//2 12//2
f 4//2 3//2 9//2
f 9//2 10//2 4//2
f 10//2 11//2 4//2
f 4//2 11//2 12//2
f 16//2 7//2 8//2
f 13//2 14//2 8//2
f 14//2 15//2 8//2
f 15//2 16//2 8//2
f 4//3 2//3 28//3
f 2//3 1//3 25//3
f 25//3 26//3 2//3
f 26//3 27//3 2//3
f 2//3 27//3 28//3
f 32//3 3//3 4//3
f 29//3 30//3 4//3
f 30//3 31//3 4//3
f 31//3 32//3 4//3
f 2//4 6//4 20//4
f 6//4 5//4 17//4
f 17//4 18//4 6//4
f 18//4 19//4 6//4
f 6//4 19//4 20//4
f 24//4 1//4 2//4
f 21//4 22//4 2//4
f 22//4 23//4 2//4
f 23//4 24//4 2//4
f 6//5 8//5 36//5
f 8//5 7//5 33//5
f 33//5 34//5 8//5
f 34//5 35//5 8//5
f 8//5 35//5 36//5
f 40//5 5//5 6//5
f 37//5 38//5 6//5
f 38//5 39//5 6//5
f 39//5 40//5 6//5
f 23//6 22//6 48//6
f 22//6 21//6 47//6
f 48//6 22//6 47//6
f 1//6 24//6 25//6
f 24//6 23//6 25//6
f 49//6 50//6 45//6
f 23//6 48//6 43//6
f 48//6 49//6 45//6
f 28//6 27//6 41//6
f 27//6 26//6 41//6
f 41//6 26//6 43//6
f 26//6 25//6 23//6
f 48//6 45//6 43//6
f 29//6 42//6 30//6
f 42//6 44//6 30//6
f 46//6 51//6 52//6
f 44//6 46//6 52//6
f 53//6 54//6 11//6
f 54//6 12//6 11//6
f 44//6 52//6 53//6
f 31//6 30//6 44//6
f 9//6 3//6 32//6
f 32//6 31//6 9//6
f 31//6 44//6 10//6
f 9//6 31//6 10//6
f 44//6 53//6 10//6
f 40//6 39//6 17//6
f 39//6 38//6 57//6
f 17//6 39//6 18//6
f 37//6 36//6 58//6
f 36//6 35//6 59//6
f 37//6 57//6 38//6
f 57//6 37//6 58//6
f 34//6 33//6 16//6
f 33//6 7//6 16//6
f 35//6 34//6 60//6
f 17//6 5//6 40//6
f 39//6 57//6 56//6
f 15//6 14//6 62//6
f 14//6 13//6 62//6
f 15//6 62//6 61//6
f 34//6 16//6 15//6
f 20//6 19//6 55//6
f 19//6 18//6 56//6
f 58//6 36//6 59//6
f 18//6 39//6 56//6
f 34//6 15//6 61//6
f 61//6 60//6 34//6
f 55//6 19//6 56//6
g Cube_Cube_Material.002
usemtl Material.002
f 29//6 28//6 41//6
f 58//6 59//6 51//6
f 59//6 60//6 51//6
f 58//6 51//6 50//6
f 61//6 62//6 54//6
f 62//6 13//6 12//6
f 57//6 58//6 50//6
f 62//6 12//6 54//6
f 56//6 57//6 49//6
f 60//6 61//6 53//6
f 54//6 53//6 61//6
f 53//6 52//6 60//6
f 60//6 52//6 51//6
f 20//6 55//6 47//6
f 55//6 56//6 48//6
f 49//6 57//6 50//6
f 46//6 44//6 43//6
f 44//6 42//6 41//6
f 44//6 41//6 43//6
f 42//6 29//6 41//6
f 47//6 21//6 20//6
f 49//6 48//6 56//6
f 48//6 47//6 55//6
f 43//6 45//6 46//6
f 45//6 50//6 51//6
f 51//6 46//6 45//6
