# Blender v2.79 (sub 0) OBJ File: 'BusDropCollisionShape.blend'
# www.blender.org
mtllib BusDropCollisionShape.mtl
o Cube
v 16.042143 1.000000 -27.529331
v -6.251654 3.000000 -6.886780
v 16.042143 1.000000 27.570667
v -6.630077 3.000000 -3.500725
v -6.757856 3.000000 0.020657
v -6.630080 3.000000 3.542038
v -16.257856 3.000000 0.020650
v -15.947536 3.000000 -5.354089
v 16.042143 3.000000 -27.529331
v 16.042143 3.000000 -21.407108
v -13.536098 1.000000 15.326617
v -11.527639 1.000000 19.501450
v -3.258575 1.000000 27.041302
v -9.080325 1.000000 22.927650
v -0.107865 1.000000 27.570667
v -0.107860 1.000000 -27.529316
v -0.107860 3.000000 -27.529316
v -6.251658 3.000000 6.928096
v -6.288204 1.000000 25.473545
v 16.042143 1.000000 -21.407108
v 16.042143 3.000000 -18.345997
v -0.107857 3.000000 -18.029327
v -1.405198 3.000000 -17.682507
v -2.652693 3.000000 -16.655361
v -3.802392 3.000000 -14.987366
v -4.810111 3.000000 -12.742619
v 16.042143 1.000000 21.448444
v 11.427856 1.000000 27.570667
v 6.813570 1.000000 27.570667
v 2.199285 1.000000 27.570667
v -0.107857 3.000000 -27.529331
v -15.028503 3.000000 -10.522278
v -13.536080 3.000000 -15.285306
v -5.637133 3.000000 10.048706
v -4.810121 3.000000 12.783943
v -3.802402 3.000000 15.028694
v 2.199286 1.000000 -27.529331
v 6.813571 1.000000 -27.529331
v 11.427856 1.000000 -27.529331
v -0.107857 1.000000 -18.029327
v -3.258544 1.000000 -26.999958
v -6.288174 1.000000 -25.432213
v -9.080298 1.000000 -22.886326
v -11.527618 1.000000 -19.460133
v -13.536080 1.000000 -15.285306
v -15.028503 1.000000 -10.522278
v -16.257856 1.000000 0.020669
v -15.947536 1.000000 -5.354089
v -16.257856 1.000000 0.020650
v 11.427856 3.000000 -27.529331
v -15.947540 1.000000 5.395390
v -15.028518 1.000000 10.563581
v -0.107857 1.000000 -27.529331
v -0.107857 1.000000 27.570667
v -0.107860 1.000000 18.070675
v -1.405211 1.000000 17.723846
v -2.652705 1.000000 16.696693
v -3.802402 1.000000 15.028694
v -4.810121 1.000000 12.783943
v -5.637133 1.000000 10.048706
v -6.251658 1.000000 6.928096
v -6.630080 1.000000 3.542038
v -6.757856 1.000000 0.020657
v -6.630077 1.000000 -3.500725
v -6.251654 1.000000 -6.886780
v -5.637126 1.000000 -10.007387
v -4.810111 1.000000 -12.742619
v -3.802392 1.000000 -14.987366
v -2.652693 1.000000 -16.655361
v -1.405198 1.000000 -17.682507
v -5.637126 3.000000 -10.007387
v 16.042143 1.000000 18.387333
v 16.042143 1.000000 19.917889
v 16.042143 1.000000 -18.345997
v -16.257856 1.000000 -3.040442
v -16.257856 1.000000 -6.101554
v 16.042143 3.000000 21.448444
v 16.042143 3.000000 19.917889
v -2.652705 3.000000 16.696693
v -1.405211 3.000000 17.723846
v -0.107860 3.000000 18.070675
v 16.042143 3.000000 18.387333
v -11.527618 3.000000 -19.460133
v -9.080298 3.000000 -22.886326
v -6.288174 3.000000 -25.432213
v -3.258544 3.000000 -26.999958
v 2.199286 3.000000 -27.529331
v 6.813571 3.000000 -27.529331
v -16.257856 1.000000 6.142890
v -16.257856 1.000000 3.081779
v -15.947540 3.000000 5.395390
v -15.028518 3.000000 10.563581
v -13.536098 3.000000 15.326617
v -11.527639 3.000000 19.501450
v -9.080325 3.000000 22.927650
v -6.288204 3.000000 25.473545
v -3.258575 3.000000 27.041302
v -0.107865 3.000000 27.570667
v -0.107857 3.000000 27.570667
v 2.199285 3.000000 27.570667
v 6.813570 3.000000 27.570667
v 11.427856 3.000000 27.570667
v 16.042143 3.000000 27.570667
v -6.251654 1.000000 -6.886780
v -6.630077 1.000000 -3.500725
v -6.757856 1.000000 0.020657
v -6.630080 1.000000 3.542038
v -16.257856 1.000000 0.020650
v -15.947536 1.000000 -5.354089
v 16.042143 1.000000 -27.529331
v 16.042143 1.000000 -21.407108
v -0.107860 1.000000 -27.529316
v -6.251658 1.000000 6.928096
v 16.042143 1.000000 -18.345997
v -0.107857 1.000000 -18.029327
v -1.405198 1.000000 -17.682507
v -2.652693 1.000000 -16.655361
v -3.802392 1.000000 -14.987366
v -4.810111 1.000000 -12.742619
v -0.107857 1.000000 -27.529331
v -15.028503 1.000000 -10.522278
v -13.536080 1.000000 -15.285306
v -5.637133 1.000000 10.048706
v -4.810121 1.000000 12.783943
v -3.802402 1.000000 15.028694
v 11.427856 1.000000 -27.529331
v -5.637126 1.000000 -10.007387
v 16.042143 1.000000 21.448444
v 16.042143 1.000000 19.917889
v -2.652705 1.000000 16.696693
v -1.405211 1.000000 17.723846
v -0.107860 1.000000 18.070675
v 16.042143 1.000000 18.387333
v -11.527618 1.000000 -19.460133
v -9.080298 1.000000 -22.886326
v -6.288174 1.000000 -25.432213
v -3.258544 1.000000 -26.999958
v 2.199286 1.000000 -27.529331
v 6.813571 1.000000 -27.529331
v -15.947540 1.000000 5.395390
v -15.028518 1.000000 10.563581
v -13.536098 1.000000 15.326617
v -11.527639 1.000000 19.501450
v -9.080325 1.000000 22.927650
v -6.288204 1.000000 25.473545
v -3.258575 1.000000 27.041302
v -0.107865 1.000000 27.570667
v -0.107857 1.000000 27.570667
v 2.199285 1.000000 27.570667
v 6.813570 1.000000 27.570667
v 11.427856 1.000000 27.570667
v 16.042143 1.000000 27.570667
vn 1.0000 0.0000 0.0000
vn 0.6356 0.0000 -0.7720
vn 0.0196 0.0000 -0.9998
vn 0.2583 0.0000 -0.9661
vn 0.8234 0.0000 -0.5675
vn 0.0000 1.0000 0.0000
vn 0.9123 0.0000 -0.4095
vn 0.9572 0.0000 -0.2894
vn 0.9812 0.0000 -0.1932
vn 0.9938 0.0000 -0.1111
vn 0.9993 0.0000 -0.0363
vn 0.9993 0.0000 0.0363
vn 0.9938 0.0000 0.1111
vn 0.9812 0.0000 0.1932
vn 0.9572 0.0000 0.2894
vn 0.9123 0.0000 0.4095
vn 0.8234 0.0000 0.5675
vn 0.6356 0.0000 0.7720
vn 0.2583 0.0000 0.9661
vn 0.0196 0.0000 0.9998
vn 0.0000 0.0000 -1.0000
vn -0.9736 0.0000 -0.2282
vn -0.1657 0.0000 -0.9862
vn -0.4596 0.0000 -0.8881
vn -0.6738 0.0000 -0.7389
vn -0.8137 0.0000 -0.5812
vn -0.9011 0.0000 -0.4335
vn -0.9543 0.0000 -0.2990
vn -0.9846 0.0000 -0.1751
vn -0.9983 0.0000 -0.0576
vn -0.9983 0.0000 0.0576
vn -0.9846 0.0000 0.1751
vn -0.9543 0.0000 0.2990
vn -0.9011 0.0000 0.4335
vn -0.8137 0.0000 0.5812
vn -0.6738 0.0000 0.7389
vn -0.4596 0.0000 0.8881
vn -0.1657 0.0000 0.9862
vn 0.0000 0.0000 1.0000
vn 0.0000 -1.0000 0.0000
vn 0.0000 0.9935 0.1135
vn 0.0000 0.9999 -0.0135
g Cube_Cube_Material.001
usemtl Material.001
s off
f 82//1 73//1 72//1
f 79//2 56//2 57//2
f 81//3 72//3 55//3
f 80//4 55//4 56//4
f 36//5 57//5 58//5
f 78//1 27//1 73//1
f 105//6 104//6 109//6
f 48//6 75//6 49//6
f 51//6 49//6 47//6
f 35//7 58//7 59//7
f 4//6 2//6 8//6
f 34//8 59//8 60//8
f 18//9 60//9 61//9
f 6//10 61//10 62//10
f 5//11 62//11 63//11
f 4//12 63//12 64//12
f 2//13 64//13 65//13
f 71//14 65//14 66//14
f 26//15 66//15 67//15
f 25//16 67//16 68//16
f 24//17 68//17 69//17
f 23//18 69//18 70//18
f 22//19 70//19 40//19
f 21//20 40//20 74//20
f 10//1 74//1 20//1
f 9//1 20//1 1//1
f 50//21 1//21 39//21
f 88//21 39//21 38//21
f 87//21 38//21 37//21
f 31//21 37//21 53//21
f 17//22 53//22 16//22
f 86//23 16//23 41//23
f 85//24 41//24 42//24
f 84//25 42//25 43//25
f 83//26 43//26 44//26
f 33//27 44//27 45//27
f 32//28 45//28 46//28
f 8//29 46//29 48//29
f 7//30 48//30 49//30
f 91//31 49//31 51//31
f 92//32 51//32 52//32
f 93//33 52//33 11//33
f 94//34 11//34 12//34
f 95//35 12//35 14//35
f 96//36 14//36 19//36
f 97//37 19//37 13//37
f 98//38 13//38 15//38
f 99//39 15//39 54//39
f 100//39 54//39 30//39
f 101//39 30//39 29//39
f 102//39 29//39 28//39
f 103//39 28//39 3//39
f 77//1 3//1 27//1
f 82//1 78//1 73//1
f 79//2 80//2 56//2
f 81//3 82//3 72//3
f 80//4 81//4 55//4
f 36//5 79//5 57//5
f 78//1 77//1 27//1
f 128//6 129//6 150//6
f 129//6 133//6 132//6
f 129//6 132//6 150//6
f 151//6 152//6 128//6
f 148//6 149//6 132//6
f 149//6 150//6 132//6
f 150//6 151//6 128//6
f 146//6 147//6 148//6
f 148//6 132//6 146//6
f 132//6 131//6 146//6
f 145//6 146//6 131//6
f 143//6 144//6 130//6
f 144//6 145//6 131//6
f 143//6 130//6 125//6
f 141//6 142//6 123//6
f 142//6 143//6 124//6
f 124//6 143//6 125//6
f 108//6 140//6 107//6
f 140//6 141//6 113//6
f 113//6 141//6 123//6
f 121//6 109//6 104//6
f 109//6 108//6 105//6
f 121//6 104//6 127//6
f 134//6 122//6 119//6
f 122//6 121//6 127//6
f 134//6 119//6 118//6
f 136//6 135//6 116//6
f 135//6 134//6 117//6
f 117//6 134//6 118//6
f 112//6 137//6 115//6
f 137//6 136//6 116//6
f 138//6 120//6 112//6
f 110//6 126//6 111//6
f 126//6 139//6 111//6
f 115//6 139//6 138//6
f 138//6 112//6 115//6
f 137//6 116//6 115//6
f 131//6 130//6 144//6
f 142//6 124//6 123//6
f 135//6 117//6 116//6
f 119//6 122//6 127//6
f 139//6 115//6 114//6
f 114//6 111//6 139//6
f 140//6 113//6 107//6
f 108//6 107//6 106//6
f 108//6 106//6 105//6
f 48//6 46//6 76//6
f 75//40 47//40 49//40
f 48//6 76//6 75//6
f 47//6 90//6 51//6
f 90//6 89//6 51//6
f 89//6 52//6 51//6
f 35//7 36//7 58//7
f 77//6 78//6 101//6
f 78//6 82//6 81//6
f 78//6 81//6 101//6
f 102//6 103//6 77//6
f 99//6 100//6 81//6
f 100//6 101//6 81//6
f 101//6 102//6 77//6
f 97//41 98//41 99//41
f 99//6 81//6 97//6
f 81//6 80//6 97//6
f 96//6 97//6 80//6
f 94//6 95//6 79//6
f 95//6 96//6 80//6
f 94//6 79//6 36//6
f 92//6 93//6 34//6
f 93//6 94//6 35//6
f 35//6 94//6 36//6
f 7//6 91//6 6//6
f 91//6 92//6 18//6
f 18//6 92//6 34//6
f 32//6 8//6 2//6
f 8//6 7//6 4//6
f 32//6 2//6 71//6
f 83//6 33//6 26//6
f 33//6 32//6 71//6
f 83//6 26//6 25//6
f 85//6 84//6 23//6
f 84//6 83//6 24//6
f 24//6 83//6 25//6
f 17//6 86//6 22//6
f 86//6 85//6 23//6
f 87//42 31//42 17//42
f 9//6 50//6 10//6
f 50//6 88//6 10//6
f 22//6 88//6 87//6
f 87//6 17//6 22//6
f 86//6 23//6 22//6
f 80//6 79//6 95//6
f 93//6 35//6 34//6
f 84//6 24//6 23//6
f 26//6 33//6 71//6
f 88//6 22//6 21//6
f 21//6 10//6 88//6
f 91//6 18//6 6//6
f 7//6 6//6 5//6
f 7//6 5//6 4//6
f 34//8 35//8 59//8
f 18//9 34//9 60//9
f 6//10 18//10 61//10
f 5//11 6//11 62//11
f 4//12 5//12 63//12
f 2//13 4//13 64//13
f 71//14 2//14 65//14
f 26//15 71//15 66//15
f 25//16 26//16 67//16
f 24//17 25//17 68//17
f 23//18 24//18 69//18
f 22//19 23//19 70//19
f 21//20 22//20 40//20
f 10//1 21//1 74//1
f 9//1 10//1 20//1
f 50//21 9//21 1//21
f 88//21 50//21 39//21
f 87//21 88//21 38//21
f 31//21 87//21 37//21
f 17//22 31//22 53//22
f 86//23 17//23 16//23
f 85//24 86//24 41//24
f 84//25 85//25 42//25
f 83//26 84//26 43//26
f 33//27 83//27 44//27
f 32//28 33//28 45//28
f 8//29 32//29 46//29
f 7//30 8//30 48//30
f 91//31 7//31 49//31
f 92//32 91//32 51//32
f 93//33 92//33 52//33
f 94//34 93//34 11//34
f 95//35 94//35 12//35
f 96//36 95//36 14//36
f 97//37 96//37 19//37
f 98//38 97//38 13//38
f 99//39 98//39 15//39
f 100//39 99//39 54//39
f 101//39 100//39 30//39
f 102//39 101//39 29//39
f 103//39 102//39 28//39
f 77//1 103//1 3//1
