# Blender v2.79 (sub 0) OBJ File: 'Flags1over.blend'
# www.blender.org
mtllib FlagRight.mtl
o Cube
v -0.858928 2.907603 -0.294285
v -0.858928 2.907603 -0.305716
v 0.000000 1.000000 -0.029297
v 0.000001 3.500000 -0.029297
v 0.005716 1.000000 -0.028734
v 0.005716 3.500000 -0.028734
v 0.011212 1.000000 -0.027067
v 0.011212 3.500000 -0.027067
v 0.016277 1.000000 -0.024360
v 0.016277 3.500000 -0.024360
v 0.020717 1.000000 -0.020716
v 0.020717 3.500000 -0.020716
v 0.024360 1.000000 -0.016277
v 0.024360 3.500000 -0.016277
v 0.027067 1.000000 -0.011212
v 0.027068 3.500000 -0.011212
v 0.028735 1.000000 -0.005716
v 0.028735 3.500000 -0.005716
v 0.029297 1.000000 -0.000000
v 0.029298 3.500000 -0.000000
v 0.028735 1.000000 0.005715
v 0.028735 3.500000 0.005715
v 0.027067 1.000000 0.011211
v 0.027068 3.500000 0.011211
v 0.024360 1.000000 0.016276
v 0.024360 3.500000 0.016276
v 0.020717 1.000000 0.020716
v 0.020717 3.500000 0.020716
v 0.016277 1.000000 0.024359
v 0.016277 3.500000 0.024359
v 0.011212 1.000000 0.027066
v 0.011212 3.500000 0.027066
v 0.005716 1.000000 0.028734
v 0.005716 3.500000 0.028734
v 0.000000 1.000000 0.029297
v 0.000001 3.500000 0.029297
v -0.005715 1.000000 0.028734
v -0.005715 3.500000 0.028734
v -0.011211 1.000000 0.027066
v -0.011211 3.500000 0.027066
v -0.016276 1.000000 0.024359
v -0.016276 3.500000 0.024359
v -0.020715 1.000000 0.020716
v -0.020715 3.500000 0.020716
v -0.024359 1.000000 0.016276
v -0.024359 3.500000 0.016276
v -0.027066 1.000000 0.011211
v -0.027066 3.500000 0.011211
v -0.028733 1.000000 0.005715
v -0.028733 3.500000 0.005715
v -0.029296 1.000000 -0.000000
v -0.029296 3.500000 -0.000000
v -0.028733 1.000000 -0.005716
v -0.028733 3.500000 -0.005716
v -0.027066 1.000000 -0.011212
v -0.027066 3.500000 -0.011212
v -0.024359 1.000000 -0.016277
v -0.024359 3.500000 -0.016277
v -0.020715 1.000000 -0.020716
v -0.020715 3.500000 -0.020716
v -0.016276 1.000000 -0.024360
v -0.016276 3.500000 -0.024360
v -0.011211 1.000000 -0.027067
v -0.011211 3.500000 -0.027067
v -0.005715 1.000000 -0.028734
v -0.005715 3.500000 -0.028734
v -5.000000 1.000000 -3.000000
v -5.000000 -1.000000 -3.000000
v -5.000000 1.000000 -1.000000
v -5.000000 -1.000000 -1.000000
v -7.000000 1.000000 -3.000000
v -7.000000 -1.000000 -3.000000
v -7.000000 1.000000 -1.000000
v -7.000000 -1.000000 -1.000000
v -6.000000 1.000000 -2.029297
v -5.999999 3.500000 -2.029297
v -5.994284 1.000000 -2.028734
v -5.994284 3.500000 -2.028734
v -5.988788 1.000000 -2.027067
v -5.988788 3.500000 -2.027067
v -5.983723 1.000000 -2.024360
v -5.983723 3.500000 -2.024360
v -5.979283 1.000000 -2.020717
v -5.979283 3.500000 -2.020717
v -5.975640 1.000000 -2.016276
v -5.975640 3.500000 -2.016276
v -5.972933 1.000000 -2.011211
v -5.972932 3.500000 -2.011211
v -5.971265 1.000000 -2.005715
v -5.971265 3.500000 -2.005715
v -5.970703 1.000000 -2.000000
v -5.970702 3.500000 -2.000000
v -5.971265 1.000000 -1.994285
v -5.971265 3.500000 -1.994285
v -5.972933 1.000000 -1.988789
v -5.972932 3.500000 -1.988789
v -5.975640 1.000000 -1.983724
v -5.975640 3.500000 -1.983724
v -5.979283 1.000000 -1.979284
v -5.979283 3.500000 -1.979284
v -5.983723 1.000000 -1.975641
v -5.983723 3.500000 -1.975641
v -5.988788 1.000000 -1.972934
v -5.988788 3.500000 -1.972934
v -5.994284 1.000000 -1.971267
v -5.994284 3.500000 -1.971267
v -6.000000 1.000000 -1.970703
v -5.999999 3.500000 -1.970703
v -6.005715 1.000000 -1.971267
v -6.005715 3.500000 -1.971267
v -6.011211 1.000000 -1.972934
v -6.011210 3.500000 -1.972934
v -6.016276 1.000000 -1.975641
v -6.016275 3.500000 -1.975641
v -6.020716 1.000000 -1.979284
v -6.020715 3.500000 -1.979284
v -6.024359 1.000000 -1.983724
v -6.024359 3.500000 -1.983724
v -6.027066 1.000000 -1.988789
v -6.027066 3.500000 -1.988789
v -6.028733 1.000000 -1.994285
v -6.028733 3.500000 -1.994285
v -6.029296 1.000000 -2.000000
v -6.029296 3.500000 -2.000000
v -6.028733 1.000000 -2.005716
v -6.028733 3.500000 -2.005716
v -6.027066 1.000000 -2.011211
v -6.027066 3.500000 -2.011211
v -6.024359 1.000000 -2.016276
v -6.024359 3.500000 -2.016276
v -6.020715 1.000000 -2.020717
v -6.020715 3.500000 -2.020717
v -6.016276 1.000000 -2.024360
v -6.016275 3.500000 -2.024360
v -6.011211 1.000000 -2.027067
v -6.011210 3.500000 -2.027067
v -6.005715 1.000000 -2.028734
v -6.005715 3.500000 -2.028734
v -0.028733 3.500000 0.005715
v -0.028733 3.500000 -0.005716
v -5.971265 3.500000 -2.005715
v -5.971265 3.500000 -1.994285
v -0.622986 3.225000 -0.205716
v -1.217240 3.075000 -0.405716
v -1.811493 2.925000 -0.605716
v -2.405746 2.875000 -0.805716
v -3.000000 2.825000 -1.005716
v -3.594253 2.875000 -1.205716
v -4.188506 2.925000 -1.405715
v -4.782759 3.075000 -1.605715
v -5.377012 3.225000 -1.805715
v -0.622986 3.225000 -0.194285
v -1.217240 3.075000 -0.394285
v -1.811493 2.925000 -0.594285
v -2.405746 2.875000 -0.794285
v -3.000000 2.825000 -0.994285
v -3.594253 2.875000 -1.194285
v -4.188506 2.925000 -1.394285
v -4.782759 3.075000 -1.594285
v -5.377012 3.225000 -1.794285
v -0.028733 3.475000 -0.005716
v -5.971265 3.475000 -2.005715
v -5.971265 3.475000 -1.994285
v -0.028733 3.475000 0.005715
v -5.971265 3.500000 -1.994285
v -5.971265 3.500000 -2.005715
v -5.971265 3.475000 -2.001905
v -5.971265 3.475000 -1.998095
v -5.379466 3.249879 -1.805715
v -0.031187 3.499879 -0.005716
v -1.219693 3.099879 -0.405716
v -1.813946 2.949879 -0.605716
v -1.219693 3.099879 -0.394285
v -3.596706 2.899879 -1.194285
v -4.785212 3.099879 -1.594285
v -0.625440 3.249879 -0.205716
v -2.408200 2.899879 -0.805716
v -3.596706 2.899879 -1.205716
v -4.190959 2.949879 -1.405715
v -0.031187 3.499879 0.005715
v -1.813946 2.949879 -0.594285
v -2.408200 2.899879 -0.794285
v -3.002453 2.849879 -0.994285
v -5.973719 3.499879 -2.005715
v -3.002453 2.849879 -1.005716
v -4.785212 3.099879 -1.605715
v -0.625440 3.249879 -0.194285
v -4.190959 2.949879 -1.394285
v -5.379466 3.249879 -1.794285
v -5.973719 3.499879 -1.994285
v -5.971265 3.475000 -2.001905
v -5.971265 3.475000 -1.998095
v -5.575097 3.308333 -1.872382
v -5.773181 3.391666 -1.939049
v -5.575097 3.308333 -1.860951
v -5.773181 3.391666 -1.927618
v -5.377012 3.225000 -1.801905
v -5.377012 3.225000 -1.798095
v -4.980843 3.125000 -1.672382
v -5.178927 3.175000 -1.739049
v -4.980843 3.125000 -1.660951
v -5.178927 3.175000 -1.727618
v -5.771083 3.119562 -1.894285
v -5.771083 3.119562 -1.905715
v -4.386590 2.975000 -1.472382
v -4.584674 3.025000 -1.539049
v -4.386590 2.975000 -1.460951
v -4.584674 3.025000 -1.527618
v -5.141070 2.907603 -1.694285
v -5.141070 2.907603 -1.705715
v -3.792337 2.891667 -1.272382
v -3.990421 2.908333 -1.339049
v -3.792337 2.891667 -1.260951
v -3.990421 2.908333 -1.327618
v -3.198084 2.841667 -1.072382
v -3.396168 2.858333 -1.139049
v -3.198084 2.841667 -1.060951
v -3.396168 2.858333 -1.127618
v -3.912340 2.650880 -1.294285
v -3.912340 2.650880 -1.305716
v -2.603831 2.858333 -0.872382
v -2.801915 2.841667 -0.939049
v -2.603831 2.858333 -0.860951
v -2.801915 2.841667 -0.927618
v -3.318087 2.600880 -1.094285
v -3.318087 2.600880 -1.105716
v -2.009577 2.908333 -0.672382
v -2.207662 2.891667 -0.739049
v -2.009577 2.908333 -0.660951
v -2.207662 2.891667 -0.727618
v -1.415324 3.025000 -0.472382
v -1.613409 2.975000 -0.539049
v -1.415324 3.025000 -0.460951
v -1.613409 2.975000 -0.527618
v -2.087659 2.650880 -0.694285
v -2.087659 2.650880 -0.705716
v -0.821071 3.175000 -0.272382
v -1.019155 3.125000 -0.339049
v -0.821071 3.175000 -0.260951
v -1.019155 3.125000 -0.327618
v -1.453181 2.757603 -0.494285
v -1.453181 2.757603 -0.505716
v -0.226818 3.391667 -0.072383
v -0.424902 3.308333 -0.139049
v -0.226818 3.391667 -0.060951
v -0.424902 3.308333 -0.127618
v -0.228915 3.119562 -0.105716
v -0.228915 3.119562 -0.094285
v -2.681912 2.600880 -0.905716
v -2.681912 2.600880 -0.894285
v -4.546818 2.757603 -1.505715
v -4.546818 2.757603 -1.494285
v -1.000000 -1.000000 1.000000
v -1.000000 1.000000 1.000000
v -1.000000 -1.000000 -1.000000
v -1.000000 1.000000 -1.000000
v 1.000000 -1.000000 1.000000
v 1.000000 1.000000 1.000000
v 1.000000 -1.000000 -1.000000
v 1.000000 1.000000 -1.000000
vn 0.0000 0.0000 1.0000
vn 0.0000 0.0000 -1.0000
vn 0.0492 -0.9988 0.0000
vn 1.0000 0.0000 0.0000
vn -1.0000 0.0000 0.0000
vn 0.0000 -1.0000 0.0000
vn 0.0000 1.0000 0.0000
vn 0.3008 0.0759 -0.9507
vn -0.3008 -0.0759 0.9507
vn 0.0980 0.0000 -0.9952
vn 0.2903 0.0000 -0.9569
vn 0.4714 -0.0000 -0.8819
vn 0.6344 0.0000 -0.7730
vn 0.7730 0.0000 -0.6344
vn 0.8819 0.0000 -0.4714
vn 0.9569 -0.0000 -0.2903
vn 0.9952 0.0000 -0.0980
vn 0.9952 -0.0000 0.0980
vn 0.9569 0.0000 0.2903
vn 0.8819 -0.0000 0.4714
vn 0.7730 0.0000 0.6344
vn 0.6344 0.0000 0.7730
vn 0.4714 0.0000 0.8819
vn 0.2903 -0.0000 0.9569
vn 0.0980 0.0000 0.9952
vn -0.0980 0.0000 0.9952
vn -0.2903 0.0000 0.9569
vn -0.4714 0.0000 0.8819
vn -0.6344 0.0000 0.7730
vn -0.7730 0.0000 0.6344
vn -0.8819 0.0000 0.4714
vn -0.9569 0.0000 0.2903
vn -0.9952 0.0000 0.0980
vn -0.9952 0.0000 -0.0980
vn -0.9569 0.0000 -0.2903
vn -0.8819 0.0000 -0.4714
vn -0.7730 0.0000 -0.6344
vn -0.6344 0.0000 -0.7730
vn -0.4714 0.0000 -0.8819
vn -0.2903 0.0000 -0.9569
vn -0.0980 0.0000 -0.9952
vn 0.7731 0.0000 -0.6343
vn 0.8819 0.0000 0.4713
vn 0.0981 0.0000 0.9952
vn -0.0982 0.0000 0.9952
vn -0.6343 0.0000 0.7731
vn -0.9570 0.0000 0.2902
vn -0.7731 0.0000 -0.6343
vn 0.2731 -0.1149 -0.9551
vn -0.2731 0.1149 0.9551
vn 0.8050 -0.5933 0.0000
vn -0.9901 -0.1402 0.0000
vn -0.9570 -0.2902 0.0000
vn 0.8950 -0.4461 0.0000
vn 0.3168 -0.0267 -0.9481
vn -0.3168 0.0267 0.9481
vn -0.8950 -0.4461 0.0000
vn 0.9570 -0.2902 0.0000
vn 0.3168 0.0267 -0.9481
vn -0.3168 -0.0267 0.9481
vn -0.8050 -0.5933 0.0000
vn 0.9901 -0.1402 0.0000
vn 0.6937 -0.7202 0.0000
vn -1.0000 -0.0077 0.0000
vn 0.3008 -0.0759 -0.9507
vn -0.3008 0.0759 0.9507
vn 0.9952 -0.0000 -0.0981
vn 0.9952 0.0000 0.0981
vn 0.9570 0.0000 0.2902
vn 0.0982 -0.0000 0.9952
vn -0.0981 0.0000 0.9952
vn -0.6343 0.0000 -0.7731
vn 0.3165 0.0312 -0.9481
vn -0.3261 -0.0322 0.9448
vn 0.3118 0.0307 -0.9496
vn -0.3212 -0.0317 0.9465
vn 0.3119 0.0308 -0.9496
vn -0.0492 0.9988 0.0000
vn 0.3073 0.0303 -0.9511
vn -0.3165 -0.0312 0.9481
vn -0.3311 -0.0327 0.9430
vn 0.3311 0.0327 -0.9430
vn -0.3118 -0.0308 0.9496
vn -0.3074 -0.0303 0.9511
vn 0.3261 0.0322 -0.9448
vn 0.3212 0.0317 -0.9465
vn 0.3878 -0.9218 0.0000
vn 0.2447 0.9696 0.0000
vn 0.0838 0.9965 0.0000
vn -0.0838 0.9965 0.0000
vn 0.0838 -0.9965 0.0000
vn -0.2447 0.9696 0.0000
vn -0.3878 0.9218 0.0000
vn 0.3878 0.9218 0.0000
vn 0.2447 -0.9696 0.0000
vn -0.0838 -0.9965 0.0000
vn -0.2447 -0.9696 0.0000
vn -0.3878 -0.9218 0.0000
vn -0.3261 -0.0321 0.9448
vn 0.3118 0.0308 -0.9496
vn 0.3074 0.0303 -0.9511
vn -0.3311 -0.0326 0.9430
vn 0.3311 0.0326 -0.9430
vn -0.3118 -0.0307 0.9496
vn -0.3119 -0.0308 0.9496
vn -0.3073 -0.0303 0.9511
vn 0.3261 0.0321 -0.9448
vn -0.2448 -0.9696 0.0000
vn -0.3878 -0.9217 0.0000
vn -0.6937 -0.7202 0.0000
vn 1.0000 -0.0077 0.0000
vn -0.2731 -0.1149 0.9551
vn 0.2731 0.1149 -0.9551
g Cube_Cube_Material
usemtl Material
s off
f 90//1 141//1 184//1
f 142//2 163//2 190//2
f 139//1 50//1 180//1
f 166//1 90//1 184//1
f 165//3 184//3 166//3
f 141//2 162//2 184//2
f 140//1 54//1 170//1
f 94//1 142//1 190//1
f 94//1 166//1 165//1
f 142//1 94//1 163//1
f 54//1 140//1 161//1
f 94//1 165//1 190//1
f 94//4 168//4 167//4
f 50//1 139//1 164//1
f 54//5 164//5 50//5
f 141//1 90//1 162//1
f 166//5 191//5 192//5
f 165//3 190//3 184//3
f 94//1 90//1 166//1
f 162//4 90//4 167//4
f 90//4 94//4 167//4
f 94//4 163//4 168//4
f 54//5 161//5 164//5
f 163//5 165//5 192//5
f 165//5 166//5 192//5
f 166//5 162//5 191//5
g Cube_Cube_Material.001
usemtl Material.001
f 68//6 74//6 72//6
f 71//7 69//7 67//7
f 69//1 74//1 70//1
f 67//4 70//4 68//4
f 71//2 68//2 72//2
f 73//5 72//5 74//5
f 254//5 255//5 253//5
f 256//2 259//2 255//2
f 260//4 257//4 259//4
f 258//1 253//1 257//1
f 259//6 253//6 255//6
f 256//7 258//7 260//7
f 68//6 70//6 74//6
f 71//7 73//7 69//7
f 69//1 73//1 74//1
f 67//4 69//4 70//4
f 71//2 67//2 68//2
f 73//5 71//5 72//5
f 254//5 256//5 255//5
f 256//2 260//2 259//2
f 260//4 258//4 257//4
f 258//1 254//1 253//1
f 259//6 257//6 253//6
f 256//7 254//7 258//7
g Cube_Cube_Material.002
usemtl Material.002
f 238//8 237//8 2//8
f 1//9 239//9 240//9
f 3//10 6//10 5//10
f 6//11 7//11 5//11
f 8//12 9//12 7//12
f 10//13 11//13 9//13
f 12//14 13//14 11//14
f 14//15 15//15 13//15
f 16//16 17//16 15//16
f 18//17 19//17 17//17
f 20//18 21//18 19//18
f 22//19 23//19 21//19
f 24//20 25//20 23//20
f 26//21 27//21 25//21
f 28//22 29//22 27//22
f 30//23 31//23 29//23
f 32//24 33//24 31//24
f 34//25 35//25 33//25
f 36//26 37//26 35//26
f 38//27 39//27 37//27
f 40//28 41//28 39//28
f 42//29 43//29 41//29
f 44//30 45//30 43//30
f 46//31 47//31 45//31
f 48//32 49//32 47//32
f 50//33 51//33 49//33
f 52//34 53//34 51//34
f 54//35 55//35 53//35
f 56//36 57//36 55//36
f 58//37 59//37 57//37
f 60//38 61//38 59//38
f 62//39 63//39 61//39
f 40//7 24//7 8//7
f 64//40 65//40 63//40
f 66//41 3//41 65//41
f 33//6 49//6 65//6
f 76//10 77//10 75//10
f 78//11 79//11 77//11
f 80//12 81//12 79//12
f 82//13 83//13 81//13
f 84//42 85//42 83//42
f 86//15 87//15 85//15
f 88//16 89//16 87//16
f 90//17 91//17 89//17
f 92//18 93//18 91//18
f 94//19 95//19 93//19
f 96//43 97//43 95//43
f 98//21 99//21 97//21
f 100//22 101//22 99//22
f 102//23 103//23 101//23
f 104//24 105//24 103//24
f 106//44 107//44 105//44
f 108//45 109//45 107//45
f 110//27 111//27 109//27
f 112//28 113//28 111//28
f 114//46 115//46 113//46
f 116//30 117//30 115//30
f 118//31 119//31 117//31
f 120//47 121//47 119//47
f 122//33 123//33 121//33
f 124//34 125//34 123//34
f 126//35 127//35 125//35
f 128//36 129//36 127//36
f 130//48 131//48 129//48
f 132//38 133//38 131//38
f 134//39 135//39 133//39
f 80//7 128//7 112//7
f 136//40 137//40 135//40
f 138//41 75//41 137//41
f 129//6 137//6 105//6
f 204//49 194//49 193//49
f 195//50 196//50 203//50
f 252//51 205//51 207//51
f 208//52 251//52 252//52
f 218//53 226//53 225//53
f 225//54 215//54 217//54
f 226//55 216//55 215//55
f 217//56 218//56 225//56
f 230//57 236//57 235//57
f 235//58 227//58 229//58
f 236//59 228//59 227//59
f 229//60 230//60 235//60
f 2//61 240//61 238//61
f 237//62 1//62 2//62
f 193//63 203//63 204//63
f 204//64 196//64 194//64
f 206//65 205//65 251//65
f 252//66 207//66 208//66
f 3//10 4//10 6//10
f 6//11 8//11 7//11
f 8//12 10//12 9//12
f 10//13 12//13 11//13
f 12//14 14//14 13//14
f 14//15 16//15 15//15
f 16//16 18//16 17//16
f 18//67 20//67 19//67
f 20//68 22//68 21//68
f 22//19 24//19 23//19
f 24//20 26//20 25//20
f 26//21 28//21 27//21
f 28//22 30//22 29//22
f 30//23 32//23 31//23
f 32//24 34//24 33//24
f 34//25 36//25 35//25
f 36//26 38//26 37//26
f 38//27 40//27 39//27
f 40//28 42//28 41//28
f 42//29 44//29 43//29
f 44//30 46//30 45//30
f 46//31 48//31 47//31
f 48//32 50//32 49//32
f 50//33 52//33 51//33
f 52//34 54//34 53//34
f 54//35 56//35 55//35
f 56//36 58//36 57//36
f 58//37 60//37 59//37
f 60//38 62//38 61//38
f 62//39 64//39 63//39
f 8//7 6//7 4//7
f 4//7 66//7 64//7
f 64//7 62//7 56//7
f 62//7 60//7 56//7
f 60//7 58//7 56//7
f 56//7 54//7 52//7
f 52//7 50//7 48//7
f 48//7 46//7 44//7
f 44//7 42//7 48//7
f 42//7 40//7 48//7
f 40//7 38//7 36//7
f 36//7 34//7 40//7
f 34//7 32//7 40//7
f 32//7 30//7 28//7
f 28//7 26//7 24//7
f 24//7 22//7 20//7
f 20//7 18//7 24//7
f 18//7 16//7 24//7
f 16//7 14//7 12//7
f 12//7 10//7 8//7
f 8//7 4//7 56//7
f 4//7 64//7 56//7
f 56//7 52//7 48//7
f 32//7 28//7 40//7
f 28//7 24//7 40//7
f 16//7 12//7 24//7
f 12//7 8//7 24//7
f 56//7 48//7 8//7
f 48//7 40//7 8//7
f 64//40 66//40 65//40
f 66//41 4//41 3//41
f 65//6 3//6 5//6
f 5//6 7//6 65//6
f 7//6 9//6 65//6
f 9//6 11//6 13//6
f 13//6 15//6 9//6
f 15//6 17//6 9//6
f 17//6 19//6 21//6
f 21//6 23//6 17//6
f 23//6 25//6 17//6
f 25//6 27//6 29//6
f 29//6 31//6 25//6
f 31//6 33//6 25//6
f 33//6 35//6 41//6
f 35//6 37//6 41//6
f 37//6 39//6 41//6
f 41//6 43//6 45//6
f 45//6 47//6 49//6
f 49//6 51//6 57//6
f 51//6 53//6 57//6
f 53//6 55//6 57//6
f 57//6 59//6 65//6
f 59//6 61//6 65//6
f 61//6 63//6 65//6
f 41//6 45//6 33//6
f 45//6 49//6 33//6
f 65//6 9//6 17//6
f 17//6 25//6 65//6
f 25//6 33//6 65//6
f 49//6 57//6 65//6
f 76//10 78//10 77//10
f 78//11 80//11 79//11
f 80//12 82//12 81//12
f 82//13 84//13 83//13
f 84//42 86//42 85//42
f 86//15 88//15 87//15
f 88//16 90//16 89//16
f 90//67 92//67 91//67
f 92//68 94//68 93//68
f 94//69 96//69 95//69
f 96//20 98//20 97//20
f 98//21 100//21 99//21
f 100//22 102//22 101//22
f 102//23 104//23 103//23
f 104//24 106//24 105//24
f 106//70 108//70 107//70
f 108//71 110//71 109//71
f 110//27 112//27 111//27
f 112//28 114//28 113//28
f 114//46 116//46 115//46
f 116//30 118//30 117//30
f 118//31 120//31 119//31
f 120//32 122//32 121//32
f 122//33 124//33 123//33
f 124//34 126//34 125//34
f 126//35 128//35 127//35
f 128//36 130//36 129//36
f 130//48 132//48 131//48
f 132//72 134//72 133//72
f 134//39 136//39 135//39
f 80//7 78//7 76//7
f 76//7 138//7 136//7
f 136//7 134//7 128//7
f 134//7 132//7 128//7
f 132//7 130//7 128//7
f 128//7 126//7 124//7
f 124//7 122//7 120//7
f 120//7 118//7 116//7
f 116//7 114//7 120//7
f 114//7 112//7 120//7
f 112//7 110//7 108//7
f 108//7 106//7 112//7
f 106//7 104//7 112//7
f 104//7 102//7 96//7
f 102//7 100//7 96//7
f 100//7 98//7 96//7
f 96//7 94//7 92//7
f 92//7 90//7 96//7
f 90//7 88//7 96//7
f 88//7 86//7 80//7
f 86//7 84//7 80//7
f 84//7 82//7 80//7
f 80//7 76//7 128//7
f 76//7 136//7 128//7
f 128//7 124//7 112//7
f 124//7 120//7 112//7
f 112//7 104//7 96//7
f 96//7 88//7 112//7
f 88//7 80//7 112//7
f 136//40 138//40 137//40
f 138//41 76//41 75//41
f 137//6 75//6 81//6
f 75//6 77//6 81//6
f 77//6 79//6 81//6
f 81//6 83//6 85//6
f 85//6 87//6 81//6
f 87//6 89//6 81//6
f 89//6 91//6 93//6
f 93//6 95//6 89//6
f 95//6 97//6 89//6
f 97//6 99//6 101//6
f 101//6 103//6 105//6
f 105//6 107//6 109//6
f 109//6 111//6 113//6
f 113//6 115//6 117//6
f 117//6 119//6 121//6
f 121//6 123//6 129//6
f 123//6 125//6 129//6
f 125//6 127//6 129//6
f 129//6 131//6 133//6
f 133//6 135//6 137//6
f 97//6 101//6 89//6
f 101//6 105//6 89//6
f 105//6 109//6 121//6
f 109//6 113//6 121//6
f 113//6 117//6 121//6
f 129//6 133//6 137//6
f 137//6 81//6 105//6
f 81//6 89//6 105//6
f 121//6 129//6 105//6
f 252//51 251//51 205//51
f 208//52 206//52 251//52
f 218//53 216//53 226//53
f 225//54 226//54 215//54
f 230//57 228//57 236//57
f 235//58 236//58 227//58
f 2//61 1//61 240//61
f 237//62 239//62 1//62
f 193//63 195//63 203//63
f 204//64 203//64 196//64
g Cube_Cube_Material.005
usemtl Material.005
f 228//73 172//73 227//73
f 208//74 207//74 188//74
f 172//75 231//75 232//75
f 174//76 188//76 214//76
f 237//77 238//77 171//77
f 218//76 217//76 183//76
f 170//78 50//78 54//78
f 176//79 243//79 244//79
f 224//80 223//80 182//80
f 196//81 195//81 189//81
f 181//80 182//80 230//80
f 193//82 194//82 169//82
f 164//1 139//1 180//1
f 233//83 173//83 181//83
f 173//83 239//83 187//83
f 180//84 187//84 245//84
f 200//85 186//85 199//85
f 205//85 206//85 179//85
f 161//2 170//2 140//2
f 212//86 178//86 211//86
f 216//86 185//86 215//86
f 152//87 244//87 246//87
f 222//73 177//73 221//73
f 202//74 201//74 175//74
f 189//88 186//88 169//88
f 175//88 179//88 186//88
f 188//89 178//89 179//89
f 174//89 185//89 178//89
f 183//90 177//90 185//90
f 172//91 182//91 177//91
f 181//92 171//92 172//92
f 173//92 176//92 171//92
f 170//93 187//93 180//93
f 190//94 169//94 184//94
f 143//95 239//95 237//95
f 144//95 233//95 231//95
f 145//91 229//91 227//91
f 146//91 223//91 221//91
f 147//96 217//96 215//96
f 148//96 213//96 211//96
f 149//97 207//97 205//97
f 150//97 201//97 199//97
f 194//98 163//98 162//98
f 200//97 160//97 198//97
f 206//97 159//97 150//97
f 212//96 158//96 149//96
f 216//96 157//96 148//96
f 222//91 156//91 147//91
f 228//91 155//91 146//91
f 232//95 154//95 145//95
f 238//95 153//95 144//95
f 161//93 245//93 164//93
f 151//98 195//98 193//98
f 228//73 146//73 177//73
f 177//73 172//73 228//73
f 172//73 145//73 227//73
f 175//99 159//99 208//99
f 207//99 158//99 188//99
f 175//74 208//74 188//74
f 232//100 145//100 172//100
f 172//100 171//100 231//100
f 171//100 144//100 231//100
f 188//76 158//76 214//76
f 214//76 213//76 174//76
f 213//76 157//76 174//76
f 238//100 144//100 171//100
f 171//100 176//100 237//100
f 176//100 143//100 237//100
f 174//76 157//76 218//76
f 217//76 156//76 183//76
f 174//76 218//76 183//76
f 170//78 180//78 50//78
f 244//101 143//101 176//101
f 176//101 170//101 243//101
f 170//101 161//101 243//101
f 183//80 156//80 224//80
f 223//80 155//80 182//80
f 183//80 224//80 182//80
f 190//81 163//81 196//81
f 195//81 160//81 189//81
f 190//102 196//102 189//102
f 182//80 155//80 230//80
f 230//80 229//80 181//80
f 229//80 154//80 181//80
f 194//82 162//82 184//82
f 184//103 169//103 194//103
f 169//82 151//82 193//82
f 181//83 154//83 234//83
f 233//83 153//83 173//83
f 181//104 234//104 233//104
f 173//83 153//83 240//83
f 240//105 239//105 173//105
f 239//83 152//83 187//83
f 187//84 152//84 246//84
f 246//106 245//106 187//106
f 245//84 164//84 180//84
f 200//85 151//85 169//85
f 169//85 186//85 200//85
f 186//85 150//85 199//85
f 206//107 150//107 186//107
f 186//85 179//85 206//85
f 179//107 149//107 205//107
f 212//86 149//86 179//86
f 179//86 178//86 212//86
f 178//86 148//86 211//86
f 216//86 148//86 178//86
f 178//86 185//86 216//86
f 185//86 147//86 215//86
f 152//87 143//87 244//87
f 222//73 147//73 185//73
f 185//73 177//73 222//73
f 177//73 146//73 221//73
f 189//74 160//74 202//74
f 201//74 159//74 175//74
f 189//74 202//74 175//74
f 189//88 175//88 186//88
f 175//88 188//88 179//88
f 188//89 174//89 178//89
f 174//89 183//89 185//89
f 183//90 182//90 177//90
f 172//91 181//91 182//91
f 181//92 173//92 171//92
f 173//92 187//92 176//92
f 170//93 176//93 187//93
f 190//94 189//94 169//94
f 143//95 152//95 239//95
f 144//95 153//95 233//95
f 145//91 154//91 229//91
f 146//91 155//91 223//91
f 147//96 156//96 217//96
f 148//96 157//96 213//96
f 149//97 158//97 207//97
f 150//97 159//97 201//97
f 194//98 196//98 163//98
f 197//108 151//108 200//108
f 200//97 202//97 160//97
f 198//97 197//97 200//97
f 206//97 208//97 159//97
f 212//96 214//96 158//96
f 216//96 218//96 157//96
f 222//91 224//91 156//91
f 228//91 230//91 155//91
f 232//95 234//95 154//95
f 238//95 240//95 153//95
f 161//93 243//93 245//93
f 151//109 160//109 195//109
g Cube_Cube_Material.006
usemtl Material.006
f 202//52 210//52 209//52
f 209//51 199//51 201//51
f 201//66 202//66 209//66
f 210//65 200//65 199//65
f 219//54 211//54 213//54
f 214//53 220//53 219//53
f 213//56 214//56 219//56
f 220//55 212//55 211//55
f 250//58 221//58 223//58
f 224//57 249//57 250//57
f 242//61 234//61 232//61
f 231//62 241//62 242//62
f 242//8 232//8 231//8
f 233//9 234//9 241//9
f 247//110 246//110 244//110
f 243//111 248//111 247//111
f 248//112 245//112 246//112
f 244//113 243//113 247//113
f 223//60 224//60 250//60
f 249//59 222//59 221//59
f 202//52 200//52 210//52
f 209//51 210//51 199//51
f 219//54 220//54 211//54
f 214//53 212//53 220//53
f 250//58 249//58 221//58
f 224//57 222//57 249//57
f 242//61 241//61 234//61
f 231//62 233//62 241//62
f 247//110 248//110 246//110
f 243//111 245//111 248//111
l 122 126
