# Blender v2.79 (sub 0) OBJ File: ''
# www.blender.org
mtllib NineTee.mtl
o Cube
v 1.000000 -1.000000 -1.000000
v 1.000000 -1.000000 1.000000
v -1.000000 -1.000000 1.000000
v -1.000000 -1.000000 -1.000000
v 1.000000 1.000000 -0.999999
v 0.999999 1.000000 1.000001
v -1.000000 1.000000 1.000000
v -1.000000 1.000000 -1.000000
v 1.000000 1.000000 -0.777777
v 1.000000 1.000000 -0.555555
v 1.000000 1.000000 -0.333333
v 1.000000 1.000000 -0.111111
v 1.000000 1.000000 0.111112
v 1.000000 1.000000 0.333334
v 1.000000 1.000000 0.555556
v 1.000000 1.000000 0.777778
v 0.777778 1.000000 -1.000000
v 0.555556 1.000000 -1.000000
v 0.333334 1.000000 -1.000000
v 0.111111 1.000000 -1.000000
v -0.111111 1.000000 -1.000000
v -0.333333 1.000000 -1.000000
v -0.555555 1.000000 -1.000000
v -0.777778 1.000000 -1.000000
v 0.777777 1.000000 1.000000
v 0.555555 1.000000 1.000000
v 0.333333 1.000000 1.000000
v 0.111111 1.000000 1.000000
v -0.111112 1.000000 1.000000
v -0.333334 1.000000 1.000000
v -0.555556 1.000000 1.000000
v -0.777778 1.000000 1.000000
v -1.000000 1.000000 0.777777
v -1.000000 1.000000 0.555555
v -1.000000 1.000000 0.333333
v -1.000000 1.000000 0.111111
v -1.000000 1.000000 -0.111111
v -1.000000 1.000000 -0.333333
v -1.000000 1.000000 -0.555556
v -1.000000 1.000000 -0.777778
v 0.777778 1.000000 -0.111111
v 0.777778 1.000000 0.111112
v 0.555555 1.000000 -0.111111
v 0.555555 1.000000 0.111111
v 0.333333 1.000000 -0.111111
v 0.333333 1.000000 0.111111
v 0.111111 1.000000 -0.777777
v 0.111111 1.000000 -0.555555
v 0.111111 1.000000 -0.333333
v 0.111111 1.000000 -0.111111
v 0.111111 1.000000 0.111111
v 0.111111 1.000000 0.333334
v 0.111111 1.000000 0.555556
v 0.111111 1.000000 0.777778
v -0.111111 1.000000 -0.777778
v -0.111111 1.000000 -0.555555
v -0.111111 1.000000 -0.333333
v -0.111111 1.000000 -0.111111
v -0.111111 1.000000 0.111111
v -0.111111 1.000000 0.333333
v -0.111111 1.000000 0.555556
v -0.111112 1.000000 0.777778
vn 0.0000 1.0000 0.0000
vn 0.0000 -1.0000 0.0000
vn 1.0000 0.0000 0.0000
vn -0.0000 0.0000 1.0000
vn -1.0000 -0.0000 0.0000
vn 0.0000 0.0000 -1.0000
g Cube_Cube_Material.001
usemtl Material.001
s off
f 50//1 49//1 57//1
f 61//1 62//1 53//1
f 62//1 29//1 54//1
f 53//1 62//1 54//1
f 29//1 28//1 54//1
f 53//1 52//1 61//1
f 52//1 51//1 60//1
f 61//1 52//1 60//1
f 58//1 59//1 51//1
f 59//1 60//1 51//1
f 56//1 57//1 49//1
f 57//1 58//1 50//1
f 50//1 58//1 51//1
f 20//1 21//1 55//1
f 20//1 55//1 47//1
f 55//1 56//1 47//1
f 49//1 48//1 56//1
f 48//1 47//1 56//1
f 44//1 42//1 43//1
f 42//1 13//1 41//1
f 43//1 42//1 41//1
f 13//1 12//1 41//1
f 43//1 45//1 44//1
f 45//1 50//1 46//1
f 44//1 45//1 46//1
f 51//1 46//1 50//1
g Cube_Cube_Material.002
usemtl Material.002
f 2//2 4//2 1//2
f 12//3 13//3 2//3
f 28//4 29//4 3//4
f 36//5 37//5 4//5
f 19//6 18//6 1//6
f 53//1 26//1 44//1
f 48//1 49//1 45//1
f 55//1 21//1 22//1
f 2//2 3//2 4//2
f 2//3 1//3 12//3
f 1//3 5//3 9//3
f 9//3 10//3 1//3
f 10//3 11//3 1//3
f 1//3 11//3 12//3
f 16//3 6//3 2//3
f 13//3 14//3 2//3
f 14//3 15//3 2//3
f 15//3 16//3 2//3
f 3//4 2//4 28//4
f 2//4 6//4 25//4
f 25//4 26//4 2//4
f 26//4 27//4 2//4
f 2//4 27//4 28//4
f 32//4 7//4 3//4
f 29//4 30//4 3//4
f 30//4 31//4 3//4
f 31//4 32//4 3//4
f 4//5 3//5 36//5
f 3//5 7//5 33//5
f 33//5 34//5 3//5
f 34//5 35//5 3//5
f 3//5 35//5 36//5
f 40//5 8//5 4//5
f 37//5 38//5 4//5
f 38//5 39//5 4//5
f 39//5 40//5 4//5
f 17//6 5//6 1//6
f 1//6 4//6 21//6
f 4//6 8//6 24//6
f 24//6 23//6 4//6
f 23//6 22//6 4//6
f 4//6 22//6 21//6
f 18//6 17//6 1//6
f 21//6 20//6 1//6
f 20//6 19//6 1//6
f 28//1 27//1 54//1
f 27//1 26//1 54//1
f 26//1 25//1 15//1
f 25//1 6//1 16//1
f 26//1 15//1 44//1
f 16//1 15//1 25//1
f 14//1 13//1 42//1
f 15//1 14//1 44//1
f 14//1 42//1 44//1
f 44//1 46//1 52//1
f 46//1 51//1 52//1
f 52//1 53//1 44//1
f 53//1 54//1 26//1
f 45//1 43//1 48//1
f 43//1 41//1 10//1
f 18//1 10//1 9//1
f 41//1 12//1 11//1
f 11//1 10//1 41//1
f 9//1 5//1 17//1
f 18//1 19//1 48//1
f 19//1 20//1 47//1
f 48//1 43//1 18//1
f 9//1 17//1 18//1
f 43//1 10//1 18//1
f 49//1 50//1 45//1
f 47//1 48//1 19//1
f 62//1 61//1 31//1
f 61//1 60//1 34//1
f 31//1 34//1 32//1
f 59//1 58//1 37//1
f 58//1 57//1 38//1
f 38//1 57//1 39//1
f 34//1 31//1 61//1
f 60//1 59//1 35//1
f 30//1 29//1 62//1
f 31//1 30//1 62//1
f 33//1 7//1 32//1
f 35//1 34//1 60//1
f 34//1 33//1 32//1
f 38//1 37//1 58//1
f 37//1 36//1 59//1
f 36//1 35//1 59//1
f 8//1 40//1 24//1
f 40//1 39//1 24//1
f 22//1 23//1 55//1
f 23//1 24//1 39//1
f 57//1 56//1 39//1
f 56//1 55//1 23//1
f 39//1 56//1 23//1
