# Blender v2.79 (sub 0) OBJ File: 'PortaJ2.blend'
# www.blender.org
mtllib PortaJ.mtl
o Cube
v -0.349999 4.750000 -2.350000
v -0.350000 4.750000 0.349999
v -0.350000 5.125000 -1.900000
v -0.350000 5.125000 -0.100001
v -0.350000 5.312500 -0.550001
v -0.350000 5.312500 -1.450001
v -0.350000 5.406250 -0.877273
v -0.350000 5.406250 -1.122728
v 2.350000 4.718839 -2.124999
v 2.349999 4.718839 0.125000
v 2.350000 5.050776 -1.726675
v 2.349999 5.050776 -0.273324
v 2.350000 5.219776 -0.678924
v 2.350000 5.219776 -1.321075
v 2.350000 5.293750 -0.937159
v 2.350000 5.293750 -1.062840
v -0.349999 4.937500 -2.350000
v -0.350000 4.937500 0.349999
v -0.350000 5.312500 -1.900000
v -0.350000 5.312500 -0.100001
v -0.350000 5.500000 -0.550001
v -0.350000 5.500000 -1.450001
v -0.350000 5.593750 -0.877273
v -0.350000 5.593750 -1.122728
v 2.350000 4.937500 -2.349999
v 2.349999 4.937500 0.350000
v 2.350000 5.312500 -1.899999
v 2.349999 5.312500 -0.100000
v 2.350000 5.500000 -0.549999
v 2.350000 5.500000 -1.449999
v 2.350000 5.593750 -0.877272
v 2.350000 5.593750 -1.122727
v -0.350000 4.750000 0.349999
v 2.349999 4.750000 0.350000
v -0.350000 4.937500 0.349999
v 2.349999 4.937500 0.350000
v -0.350000 4.750000 0.349999
v 2.349999 4.750000 0.350000
v -0.350000 4.937500 0.349999
v 2.349999 4.937500 0.350000
v -0.350000 4.750000 0.349999
v 2.349999 4.750000 0.350000
v -0.350000 4.937500 0.349999
v 2.349999 4.937500 0.350000
v -0.350000 4.750000 0.349999
v 2.349999 4.750000 0.350000
v -0.350000 4.937500 0.349999
v 2.349999 4.937500 0.350000
v -0.537499 4.750000 -2.350000
v -0.537500 5.125000 -1.900000
v -0.537500 5.312500 -1.450001
v -0.537500 4.750000 0.349999
v -0.537500 5.125000 -0.100001
v -0.537500 5.312500 -0.550001
v -0.537500 5.406250 -0.877273
v -0.537500 5.406250 -1.122728
v -0.537499 4.937500 -2.350000
v -0.537500 5.312500 -1.900000
v -0.537500 5.500000 -1.450001
v -0.537500 4.937500 0.349999
v -0.537500 5.312500 -0.100001
v -0.537500 5.500000 -0.550001
v -0.537500 5.593750 -0.877273
v -0.537500 5.593750 -1.122728
v 2.537500 4.750000 -2.349999
v 2.537500 5.125000 -1.899999
v 2.537500 5.312500 -1.449999
v 2.537500 4.750000 0.350000
v 2.537500 5.125000 -0.100000
v 2.537500 5.312500 -0.549999
v 2.537500 5.406250 -0.877272
v 2.537500 5.406250 -1.122727
v 2.537500 4.937500 -2.349999
v 2.537500 5.312500 -1.899999
v 2.537500 5.500000 -1.449999
v 2.537500 4.937500 0.350000
v 2.537500 5.312500 -0.100000
v 2.537500 5.500000 -0.549999
v 2.537500 5.593750 -0.877272
v 2.537500 5.593750 -1.122727
v 2.537500 4.750000 -2.349999
v 2.537500 4.937500 -2.349999
v -0.537499 4.750000 -2.350000
v -0.537499 4.937500 -2.350000
v -0.537500 4.937500 0.350000
v 2.537500 4.625000 -2.499999
v 2.537500 4.812500 -2.499999
v -0.537499 4.625000 -2.500000
v -0.537499 4.812500 -2.500000
v -0.537500 4.625000 0.500000
v -0.537500 4.812500 0.500000
v 2.537500 4.750000 0.350001
v 2.537500 4.937500 0.350001
v 2.537500 4.812500 0.500002
v 2.537500 4.937500 0.350002
v 2.537500 4.625000 0.500002
v 2.349999 4.937500 0.350001
v -0.350000 4.937500 0.349999
v 2.537500 4.937500 0.350001
v -0.537500 4.937500 0.349999
v -0.537500 4.937500 0.349999
v 2.537500 4.937500 0.350001
v -0.537500 4.812500 0.499999
v 2.537499 4.812500 0.500001
v 2.350000 4.750000 -2.349999
v 2.350000 5.125000 -1.899999
v 2.349999 4.750000 0.350000
v 2.350000 5.312500 -1.449999
v 2.349999 5.125000 -0.100000
v 2.350000 5.312500 -0.549999
v 2.350000 5.406250 -0.877272
v 2.350000 5.406250 -1.122727
v 2.349999 4.729226 0.200000
v 2.350000 4.729226 -2.199999
v 2.350000 5.075518 -1.784449
v 2.350000 5.250685 -1.364050
v 2.349999 5.075518 -0.215549
v 2.350000 5.250685 -0.635949
v 2.350000 5.331250 -0.917197
v 2.350000 5.331250 -1.082802
v 0.250001 5.125000 -0.437501
v 0.250001 5.875000 -0.437501
v 0.286580 5.125000 -0.433898
v 0.286580 5.875000 -0.433898
v 0.321754 5.125000 -0.423228
v 0.321754 5.875000 -0.423228
v 0.354170 5.125000 -0.405901
v 0.354170 5.875000 -0.405901
v 0.382583 5.125000 -0.382583
v 0.382583 5.875000 -0.382583
v 0.405901 5.125000 -0.354170
v 0.405901 5.875000 -0.354170
v 0.423228 5.125000 -0.321754
v 0.423228 5.875000 -0.321754
v 0.433898 5.125000 -0.286580
v 0.433898 5.875000 -0.286580
v 0.437501 5.125000 -0.250001
v 0.437501 5.875000 -0.250001
v 0.433898 5.125000 -0.213421
v 0.433898 5.875000 -0.213421
v 0.423228 5.125000 -0.178247
v 0.423228 5.875000 -0.178247
v 0.405901 5.125000 -0.145831
v 0.405901 5.875000 -0.145831
v 0.382583 5.125000 -0.117418
v 0.382583 5.875000 -0.117418
v 0.354170 5.125000 -0.094100
v 0.354170 5.875000 -0.094100
v 0.321754 5.125000 -0.076773
v 0.321754 5.875000 -0.076773
v 0.286580 5.125000 -0.066103
v 0.286580 5.875000 -0.066103
v 0.250000 5.125000 -0.062501
v 0.250000 5.875000 -0.062501
v 0.213421 5.125000 -0.066103
v 0.213421 5.875000 -0.066103
v 0.178247 5.125000 -0.076773
v 0.178247 5.875000 -0.076773
v 0.145831 5.125000 -0.094100
v 0.145831 5.875000 -0.094100
v 0.117418 5.125000 -0.117418
v 0.117418 5.875000 -0.117418
v 0.094100 5.125000 -0.145831
v 0.094100 5.875000 -0.145831
v 0.076773 5.125000 -0.178248
v 0.076773 5.875000 -0.178248
v 0.066103 5.125000 -0.213421
v 0.066103 5.875000 -0.213421
v 0.062500 5.125000 -0.250001
v 0.062500 5.875000 -0.250001
v 0.066103 5.125000 -0.286580
v 0.066103 5.875000 -0.286580
v 0.076773 5.125000 -0.321754
v 0.076773 5.875000 -0.321754
v 0.094100 5.125000 -0.354170
v 0.094100 5.875000 -0.354170
v 0.117418 5.125000 -0.382583
v 0.117418 5.875000 -0.382583
v 0.145831 5.125000 -0.405901
v 0.145831 5.875000 -0.405901
v 0.178248 5.125000 -0.423228
v 0.178248 5.875000 -0.423228
v 0.213421 5.125000 -0.433898
v 0.213421 5.875000 -0.433898
v -1.000000 1.000000 -1.000000
v -1.000000 -1.000000 -1.000000
v -1.000000 1.000000 1.000000
v -1.000000 -1.000000 1.000000
v 1.000000 1.000000 -1.000000
v 1.000000 -1.000000 -1.000000
v 1.000000 1.000000 1.000000
v 1.000000 -1.000000 1.000000
v -0.350000 1.000000 0.349999
v -0.349999 1.000000 -2.350000
v 2.349999 1.000000 0.350000
v 2.350000 1.000000 -2.349999
v 2.349999 1.112500 0.125000
v 2.350000 1.112500 -2.124999
v 2.349999 1.075000 0.200000
v 2.350000 1.075000 -2.199999
v -0.349999 4.750000 -2.350000
v -0.349999 1.000000 -2.350000
v 2.350000 4.750000 -2.349999
v 2.350000 1.000000 -2.349999
v 2.349999 4.750000 0.350000
v 2.349999 1.000000 0.350000
v -1.000000 1.000000 -3.000000
v -1.000000 -1.000000 -3.000000
v -1.000000 1.000000 -1.000000
v -1.000000 -1.000000 -1.000000
v 1.000000 1.000000 -3.000000
v 1.000000 -1.000000 -3.000000
v 1.000000 1.000000 -1.000000
v 1.000000 -1.000000 -1.000000
v 1.000000 1.000000 -3.000000
v 1.000000 -1.000000 -3.000000
v 1.000000 1.000000 -1.000000
v 1.000000 -1.000000 -1.000000
v 3.000000 1.000000 -3.000000
v 3.000000 -1.000000 -3.000000
v 3.000000 1.000000 -1.000000
v 3.000000 -1.000000 -1.000000
v 1.000000 1.000000 -1.000000
v 1.000000 -1.000000 -1.000000
v 1.000000 1.000000 1.000000
v 1.000000 -1.000000 1.000000
v 3.000000 1.000000 -1.000000
v 3.000000 -1.000000 -1.000000
v 3.000000 1.000000 1.000000
v 3.000000 -1.000000 1.000000
v 1.000000 1.000000 -1.000000
v 1.000000 1.000000 -1.000000
vn 0.0000 0.7682 -0.6402
vn 0.0000 -0.9231 -0.3846
vn 0.0000 -0.7682 -0.6402
vn 0.0000 0.9613 0.2754
vn 0.0000 -0.9231 0.3846
vn 0.0000 0.9613 -0.2754
vn 0.0000 0.9231 -0.3846
vn 0.0000 -0.9613 -0.2754
vn 0.0000 -0.9613 0.2754
vn 0.0000 -1.0000 0.0000
vn 0.0000 0.0000 -1.0000
vn 0.0000 1.0000 0.0000
vn -0.0000 0.9231 0.3846
vn -0.0000 0.7682 0.6402
vn -1.0000 0.0000 0.0000
vn 0.0000 -0.7682 0.6402
vn 1.0000 0.0000 0.0000
vn -0.0000 0.0000 1.0000
vn 0.0000 -0.1393 0.9903
vn 0.0000 0.6000 0.8000
vn -0.9985 -0.0545 0.0000
vn 0.0000 0.0801 0.9968
vn 0.0980 0.0000 -0.9952
vn 0.2903 0.0000 -0.9569
vn 0.4714 0.0000 -0.8819
vn 0.6344 0.0000 -0.7730
vn 0.7730 0.0000 -0.6344
vn 0.8819 0.0000 -0.4714
vn 0.9569 0.0000 -0.2903
vn 0.9952 0.0000 -0.0980
vn 0.9952 0.0000 0.0980
vn 0.9569 0.0000 0.2903
vn 0.8819 0.0000 0.4714
vn 0.7730 0.0000 0.6344
vn 0.6344 0.0000 0.7730
vn 0.4714 0.0000 0.8819
vn 0.2903 0.0000 0.9569
vn 0.0980 0.0000 0.9952
vn -0.0980 0.0000 0.9952
vn -0.2903 0.0000 0.9569
vn -0.4714 0.0000 0.8819
vn -0.6344 0.0000 0.7730
vn -0.7730 0.0000 0.6344
vn -0.8819 0.0000 0.4714
vn -0.9569 0.0000 0.2903
vn -0.9952 0.0000 0.0980
vn -0.9952 0.0000 -0.0980
vn -0.9569 0.0000 -0.2903
vn -0.8819 0.0000 -0.4714
vn -0.7730 0.0000 -0.6344
vn -0.6344 0.0000 -0.7730
vn -0.4714 0.0000 -0.8819
vn -0.2903 0.0000 -0.9569
vn -0.0980 0.0000 -0.9952
vn 0.0000 1.0000 0.0001
vn 0.0000 1.0000 -0.0001
vn 0.0000 -1.0000 0.0001
g Cube_Cube_Material
usemtl Material
s off
f 27//1 73//1 25//1
f 110//2 69//2 109//2
f 109//3 68//3 107//3
f 29//4 79//4 31//4
f 106//5 67//5 108//5
f 32//6 75//6 30//6
f 19//7 59//7 22//7
f 19//1 57//1 58//1
f 5//8 55//8 7//8
f 6//9 56//9 51//9
f 23//4 62//4 21//4
f 7//10 56//10 8//10
f 22//6 64//6 24//6
f 1//11 25//11 105//11
f 27//1 17//1 19//1
f 22//7 27//7 19//7
f 24//6 30//6 22//6
f 23//12 32//12 24//12
f 21//4 31//4 23//4
f 21//13 28//13 29//13
f 18//14 28//14 20//14
f 53//15 60//15 61//15
f 54//15 61//15 62//15
f 55//15 62//15 63//15
f 55//15 64//15 56//15
f 56//15 59//15 51//15
f 51//15 58//15 50//15
f 50//15 57//15 49//15
f 1//11 57//11 17//11
f 3//16 49//16 1//16
f 20//14 60//14 18//14
f 3//5 51//5 50//5
f 21//13 61//13 20//13
f 23//12 64//12 63//12
f 4//2 54//2 5//2
f 66//17 73//17 74//17
f 67//17 74//17 75//17
f 72//17 75//17 80//17
f 80//17 71//17 72//17
f 71//17 78//17 70//17
f 70//17 77//17 69//17
f 69//17 76//17 68//17
f 111//10 72//10 71//10
f 30//7 74//7 27//7
f 108//9 72//9 112//9
f 26//14 77//14 28//14
f 25//11 65//11 105//11
f 110//8 71//8 70//8
f 28//13 78//13 29//13
f 31//12 80//12 32//12
f 105//16 66//16 106//16
f 96//18 91//18 90//18
f 57//1 87//1 89//1
f 82//18 73//18 65//18
f 49//15 57//15 89//15
f 87//11 88//11 89//11
f 49//16 88//16 86//16
f 91//15 60//15 52//15
f 4//3 45//3 53//3
f 94//17 96//17 92//17
f 101//18 103//18 100//18
f 92//3 90//3 52//3
f 231//10 202//10 232//10
f 206//18 232//18 195//18
f 27//1 74//1 73//1
f 110//2 70//2 69//2
f 109//3 69//3 68//3
f 29//4 78//4 79//4
f 106//5 66//5 67//5
f 32//6 80//6 75//6
f 19//7 58//7 59//7
f 19//1 17//1 57//1
f 5//8 54//8 55//8
f 6//9 8//9 56//9
f 23//4 63//4 62//4
f 7//10 55//10 56//10
f 22//6 59//6 64//6
f 1//11 17//11 25//11
f 27//1 25//1 17//1
f 22//7 30//7 27//7
f 24//6 32//6 30//6
f 23//12 31//12 32//12
f 21//4 29//4 31//4
f 21//13 20//13 28//13
f 18//14 26//14 28//14
f 53//15 52//15 60//15
f 54//15 53//15 61//15
f 55//15 54//15 62//15
f 55//15 63//15 64//15
f 56//15 64//15 59//15
f 51//15 59//15 58//15
f 50//15 58//15 57//15
f 1//11 49//11 57//11
f 3//16 50//16 49//16
f 20//14 61//14 60//14
f 3//5 6//5 51//5
f 21//13 62//13 61//13
f 23//12 24//12 64//12
f 4//2 53//2 54//2
f 66//17 65//17 73//17
f 67//17 66//17 74//17
f 72//17 67//17 75//17
f 80//17 79//17 71//17
f 71//17 79//17 78//17
f 70//17 78//17 77//17
f 69//17 77//17 76//17
f 111//10 112//10 72//10
f 30//7 75//7 74//7
f 108//9 67//9 72//9
f 26//14 76//14 77//14
f 25//11 73//11 65//11
f 110//8 111//8 71//8
f 28//13 77//13 78//13
f 31//12 79//12 80//12
f 105//16 65//16 66//16
f 96//18 94//18 91//18
f 25//12 17//12 57//12
f 73//19 25//19 57//19
f 84//18 73//18 57//18
f 57//1 82//1 87//1
f 89//18 84//18 57//18
f 65//18 81//18 86//18
f 86//17 87//17 65//17
f 87//17 82//17 65//17
f 88//18 83//18 49//18
f 57//18 84//18 89//18
f 88//15 49//15 89//15
f 87//11 86//11 88//11
f 49//10 1//10 105//10
f 49//20 105//20 65//20
f 49//18 65//18 83//18
f 86//16 81//16 49//16
f 49//18 83//18 88//18
f 52//15 90//15 91//15
f 91//21 85//21 60//21
f 4//18 2//18 45//18
f 45//3 52//3 53//3
f 92//17 93//17 95//17
f 95//17 94//17 92//17
f 98//22 97//22 99//22
f 103//14 104//14 102//14
f 100//10 98//10 99//10
f 103//14 102//14 100//14
f 100//18 99//18 101//18
f 92//3 96//3 90//3
f 231//18 194//18 202//18
f 206//10 231//10 232//10
g Cube_Cube_Material.001
usemtl Material.001
f 191//18 188//18 192//18
f 187//15 186//15 188//15
f 190//10 188//10 186//10
f 185//11 190//11 186//11
f 189//17 192//17 190//17
f 185//12 191//12 189//12
f 213//18 210//18 214//18
f 209//15 208//15 210//15
f 212//10 210//10 208//10
f 207//11 212//11 208//11
f 211//17 214//17 212//17
f 207//12 213//12 211//12
f 221//18 218//18 222//18
f 217//15 216//15 218//15
f 220//10 218//10 216//10
f 215//11 220//11 216//11
f 219//17 222//17 220//17
f 215//12 221//12 219//12
f 229//18 226//18 230//18
f 225//15 224//15 226//15
f 228//10 226//10 224//10
f 223//11 228//11 224//11
f 227//17 230//17 228//17
f 223//12 229//12 227//12
f 191//18 187//18 188//18
f 187//15 185//15 186//15
f 190//10 192//10 188//10
f 185//11 189//11 190//11
f 189//17 191//17 192//17
f 185//12 187//12 191//12
f 213//18 209//18 210//18
f 209//15 207//15 208//15
f 212//10 214//10 210//10
f 207//11 211//11 212//11
f 211//17 213//17 214//17
f 207//12 209//12 213//12
f 221//18 217//18 218//18
f 217//15 215//15 216//15
f 220//10 222//10 218//10
f 215//11 219//11 220//11
f 219//17 221//17 222//17
f 215//12 217//12 221//12
f 229//18 225//18 226//18
f 225//15 223//15 224//15
f 228//10 230//10 226//10
f 223//11 227//11 228//11
f 227//17 229//17 230//17
f 223//12 225//12 229//12
g Cube_Cube_Material.002
usemtl Material.002
f 107//18 76//18 26//18
f 26//18 35//18 36//18
f 34//18 40//18 38//18
f 18//18 33//18 35//18
f 2//18 34//18 33//18
f 107//18 36//18 34//18
f 40//18 43//18 44//18
f 36//18 39//18 40//18
f 35//18 37//18 39//18
f 33//18 38//18 37//18
f 43//18 45//18 47//18
f 39//18 41//18 43//18
f 37//18 42//18 41//18
f 38//18 44//18 42//18
f 42//18 48//18 46//18
f 44//18 47//18 48//18
f 114//17 106//17 115//17
f 115//17 108//17 116//17
f 113//17 109//17 107//17
f 117//17 110//17 109//17
f 120//17 111//17 119//17
f 120//17 108//17 112//17
f 119//17 110//17 118//17
f 122//23 123//23 121//23
f 124//24 125//24 123//24
f 126//25 127//25 125//25
f 128//26 129//26 127//26
f 130//27 131//27 129//27
f 132//28 133//28 131//28
f 134//29 135//29 133//29
f 136//30 137//30 135//30
f 138//31 139//31 137//31
f 140//32 141//32 139//32
f 142//33 143//33 141//33
f 144//34 145//34 143//34
f 146//35 147//35 145//35
f 148//36 149//36 147//36
f 150//37 151//37 149//37
f 152//38 153//38 151//38
f 154//39 155//39 153//39
f 156//40 157//40 155//40
f 158//41 159//41 157//41
f 160//42 161//42 159//42
f 162//43 163//43 161//43
f 164//44 165//44 163//44
f 166//45 167//45 165//45
f 168//46 169//46 167//46
f 170//47 171//47 169//47
f 172//48 173//48 171//48
f 174//49 175//49 173//49
f 176//50 177//50 175//50
f 178//51 179//51 177//51
f 180//52 181//52 179//52
f 174//12 158//12 142//12
f 182//53 183//53 181//53
f 184//54 121//54 183//54
f 151//10 167//10 183//10
f 199//17 196//17 200//17
f 206//18 45//18 193//18
f 201//11 204//11 202//11
f 4//15 5//15 6//15
f 205//17 206//17 199//17
f 203//17 114//17 200//17
f 10//17 197//17 198//17
f 107//18 68//18 76//18
f 26//18 18//18 35//18
f 34//18 36//18 40//18
f 18//18 2//18 33//18
f 2//18 107//18 34//18
f 107//18 26//18 36//18
f 40//18 39//18 43//18
f 36//18 35//18 39//18
f 35//18 33//18 37//18
f 33//18 34//18 38//18
f 43//18 41//18 45//18
f 39//18 37//18 41//18
f 37//18 38//18 42//18
f 38//18 40//18 44//18
f 42//18 44//18 48//18
f 44//18 43//18 47//18
f 114//17 105//17 106//17
f 115//17 106//17 108//17
f 113//17 117//17 109//17
f 117//17 118//17 110//17
f 120//17 112//17 111//17
f 120//17 116//17 108//17
f 119//17 111//17 110//17
f 122//23 124//23 123//23
f 124//24 126//24 125//24
f 126//25 128//25 127//25
f 128//26 130//26 129//26
f 130//27 132//27 131//27
f 132//28 134//28 133//28
f 134//29 136//29 135//29
f 136//30 138//30 137//30
f 138//31 140//31 139//31
f 140//32 142//32 141//32
f 142//33 144//33 143//33
f 144//34 146//34 145//34
f 146//35 148//35 147//35
f 148//36 150//36 149//36
f 150//37 152//37 151//37
f 152//38 154//38 153//38
f 154//39 156//39 155//39
f 156//40 158//40 157//40
f 158//41 160//41 159//41
f 160//42 162//42 161//42
f 162//43 164//43 163//43
f 164//44 166//44 165//44
f 166//45 168//45 167//45
f 168//46 170//46 169//46
f 170//47 172//47 171//47
f 172//48 174//48 173//48
f 174//49 176//49 175//49
f 176//50 178//50 177//50
f 178//51 180//51 179//51
f 180//52 182//52 181//52
f 126//55 124//55 182//55
f 124//12 122//12 182//12
f 122//12 184//12 182//12
f 182//55 180//55 178//55
f 178//55 176//55 174//55
f 174//12 172//12 166//12
f 172//12 170//12 166//12
f 170//12 168//12 166//12
f 166//12 164//12 162//12
f 162//12 160//12 166//12
f 160//12 158//12 166//12
f 158//12 156//12 154//12
f 154//56 152//56 150//56
f 150//12 148//12 142//12
f 148//12 146//12 142//12
f 146//12 144//12 142//12
f 142//12 140//12 138//12
f 138//12 136//12 134//12
f 134//12 132//12 130//12
f 130//12 128//12 126//12
f 182//12 178//12 174//12
f 158//12 154//12 142//12
f 154//12 150//12 142//12
f 142//12 138//12 126//12
f 138//12 134//12 126//12
f 134//12 130//12 126//12
f 126//12 182//12 174//12
f 174//12 166//12 158//12
f 126//12 174//12 142//12
f 182//53 184//53 183//53
f 184//54 122//54 121//54
f 183//10 121//10 123//10
f 123//10 125//10 127//10
f 127//10 129//10 131//10
f 131//10 133//10 135//10
f 135//10 137//10 139//10
f 139//10 141//10 143//10
f 143//10 145//10 147//10
f 147//10 149//10 151//10
f 151//10 153//10 159//10
f 153//10 155//10 159//10
f 155//10 157//10 159//10
f 159//10 161//10 163//10
f 163//10 165//10 159//10
f 165//10 167//10 159//10
f 167//10 169//10 171//10
f 171//57 173//57 175//57
f 175//57 177//57 179//57
f 179//10 181//10 175//10
f 181//10 183//10 175//10
f 183//10 123//10 127//10
f 127//10 131//10 183//10
f 131//10 135//10 183//10
f 135//10 139//10 151//10
f 139//10 143//10 151//10
f 143//10 147//10 151//10
f 167//10 171//10 183//10
f 171//10 175//10 183//10
f 151//10 159//10 167//10
f 183//10 135//10 151//10
f 199//17 195//17 196//17
f 206//18 205//18 45//18
f 201//11 203//11 204//11
f 6//15 3//15 4//15
f 3//15 1//15 45//15
f 1//15 194//15 193//15
f 45//18 2//18 4//18
f 1//15 193//15 45//15
f 8//15 6//15 5//15
f 3//15 45//15 4//15
f 5//15 7//15 8//15
f 113//18 107//18 205//18
f 206//18 195//18 199//18
f 113//17 205//17 199//17
f 203//18 105//18 114//18
f 200//18 196//18 204//18
f 204//17 203//17 200//17
f 198//17 9//17 10//17
f 9//17 11//17 10//17
f 11//17 14//17 13//17
f 14//17 16//17 13//17
f 16//17 15//17 13//17
f 13//17 12//17 11//17
f 12//17 10//17 11//17
g Cube_Cube_Material.003
usemtl Material.003
f 199//17 200//17 197//17
f 120//17 15//17 16//17
f 10//17 113//17 197//17
f 113//17 199//17 197//17
f 200//17 114//17 198//17
f 114//17 9//17 198//17
f 200//17 198//17 197//17
f 115//17 116//17 11//17
f 116//17 120//17 16//17
f 11//17 116//17 14//17
f 120//17 119//17 15//17
f 119//17 118//17 15//17
f 117//17 113//17 10//17
f 117//17 10//17 12//17
f 9//17 114//17 115//17
f 11//17 9//17 115//17
f 118//17 117//17 12//17
f 118//17 12//17 13//17
f 14//17 116//17 16//17
f 118//17 13//17 15//17
l 107 45
l 26 48
l 18 47
l 107 46
