# Blender v2.79 (sub 0) OBJ File: 'StreeLineCube.blend'
# www.blender.org
mtllib StreeLineCube.mtl
o Cube
v 1.000000 -1.000000 -1.000000
v 1.000000 -1.000000 1.000000
v -1.000000 -1.000000 1.000000
v -1.000000 -1.000000 -1.000000
v 1.000000 1.000000 -0.999999
v 0.999999 1.000000 1.000001
v -1.000000 1.000000 1.000000
v -1.000000 1.000000 -1.000000
v 1.000000 1.000000 -0.777777
v 1.000000 1.000000 -0.555555
v 1.000000 1.000000 -0.333333
v 1.000000 1.000000 -0.111111
v 1.000000 1.000000 0.111112
v 1.000000 1.000000 0.333334
v 1.000000 1.000000 0.555556
v 1.000000 1.000000 0.777778
v 0.777778 1.000000 -1.000000
v 0.555556 1.000000 -1.000000
v 0.333334 1.000000 -1.000000
v 0.111111 1.000000 -1.000000
v -0.111111 1.000000 -1.000000
v -0.333333 1.000000 -1.000000
v -0.555555 1.000000 -1.000000
v -0.777778 1.000000 -1.000000
v 0.777777 1.000000 1.000000
v 0.555555 1.000000 1.000000
v 0.333333 1.000000 1.000000
v 0.111111 1.000000 1.000000
v -0.111112 1.000000 1.000000
v -0.333334 1.000000 1.000000
v -0.555556 1.000000 1.000000
v -0.777778 1.000000 1.000000
v -1.000000 1.000000 0.777777
v -1.000000 1.000000 0.555555
v -1.000000 1.000000 0.333333
v -1.000000 1.000000 0.111111
v -1.000000 1.000000 -0.111111
v -1.000000 1.000000 -0.333333
v -1.000000 1.000000 -0.555556
v -1.000000 1.000000 -0.777778
v 0.111111 1.000000 -0.777777
v 0.111111 1.000000 -0.555555
v 0.111111 1.000000 -0.333333
v 0.111111 1.000000 -0.111111
v 0.111111 1.000000 0.111111
v 0.111111 1.000000 0.333334
v 0.111111 1.000000 0.555556
v 0.111111 1.000000 0.777778
v -0.111111 1.000000 -0.777778
v -0.111111 1.000000 -0.555555
v -0.111111 1.000000 -0.333333
v -0.111111 1.000000 -0.111111
v -0.111111 1.000000 0.111111
v -0.111111 1.000000 0.333333
v -0.111111 1.000000 0.555556
v -0.111112 1.000000 0.777778
vn 0.0000 -1.0000 0.0000
vn 1.0000 0.0000 0.0000
vn -0.0000 0.0000 1.0000
vn -1.0000 -0.0000 0.0000
vn 0.0000 0.0000 -1.0000
vn 0.0000 1.0000 -0.0000
g Cube_Cube_Material.001
usemtl Material.001
s off
f 2//1 4//1 1//1
f 12//2 13//2 2//2
f 28//3 29//3 3//3
f 36//4 37//4 4//4
f 19//5 18//5 1//5
f 31//6 56//6 55//6
f 15//6 14//6 46//6
f 2//1 3//1 4//1
f 2//2 1//2 12//2
f 1//2 5//2 9//2
f 9//2 10//2 1//2
f 10//2 11//2 1//2
f 1//2 11//2 12//2
f 16//2 6//2 2//2
f 13//2 14//2 2//2
f 14//2 15//2 2//2
f 15//2 16//2 2//2
f 3//3 2//3 28//3
f 2//3 6//3 25//3
f 25//3 26//3 2//3
f 26//3 27//3 2//3
f 2//3 27//3 28//3
f 32//3 7//3 3//3
f 29//3 30//3 3//3
f 30//3 31//3 3//3
f 31//3 32//3 3//3
f 4//4 3//4 36//4
f 3//4 7//4 33//4
f 33//4 34//4 3//4
f 34//4 35//4 3//4
f 3//4 35//4 36//4
f 40//4 8//4 4//4
f 37//4 38//4 4//4
f 38//4 39//4 4//4
f 39//4 40//4 4//4
f 17//5 5//5 1//5
f 1//5 4//5 21//5
f 4//5 8//5 24//5
f 24//5 23//5 4//5
f 23//5 22//5 4//5
f 4//5 22//5 21//5
f 18//5 17//5 1//5
f 21//5 20//5 1//5
f 20//5 19//5 1//5
f 38//6 37//6 51//6
f 37//6 36//6 52//6
f 38//6 51//6 50//6
f 35//6 34//6 54//6
f 34//6 33//6 31//6
f 54//6 34//6 55//6
f 39//6 38//6 50//6
f 33//6 7//6 32//6
f 36//6 35//6 53//6
f 8//6 40//6 24//6
f 40//6 39//6 24//6
f 22//6 23//6 50//6
f 23//6 24//6 39//6
f 51//6 37//6 52//6
f 55//6 34//6 31//6
f 39//6 50//6 23//6
f 32//6 31//6 33//6
f 30//6 29//6 56//6
f 31//6 30//6 56//6
f 21//6 22//6 49//6
f 50//6 49//6 22//6
f 53//6 52//6 36//6
f 53//6 35//6 54//6
f 17//6 18//6 10//6
f 18//6 19//6 42//6
f 19//6 20//6 41//6
f 42//6 43//6 10//6
f 43//6 44//6 11//6
f 42//6 10//6 18//6
f 19//6 41//6 42//6
f 9//6 5//6 17//6
f 44//6 45//6 12//6
f 43//6 11//6 10//6
f 46//6 47//6 15//6
f 47//6 48//6 27//6
f 27//6 48//6 28//6
f 44//6 12//6 11//6
f 45//6 46//6 13//6
f 10//6 9//6 17//6
f 13//6 12//6 45//6
f 47//6 27//6 26//6
f 26//6 25//6 15//6
f 25//6 6//6 16//6
f 26//6 15//6 47//6
f 16//6 15//6 25//6
f 14//6 13//6 46//6
g Cube_Cube_Material.002
usemtl Material.002
f 41//6 21//6 49//6
f 55//6 56//6 47//6
f 56//6 29//6 48//6
f 47//6 56//6 48//6
f 29//6 28//6 48//6
f 47//6 46//6 55//6
f 46//6 45//6 54//6
f 55//6 46//6 54//6
f 45//6 44//6 53//6
f 43//6 42//6 51//6
f 42//6 41//6 50//6
f 52//6 44//6 43//6
f 54//6 45//6 53//6
f 52//6 53//6 44//6
f 43//6 51//6 52//6
f 41//6 20//6 21//6
f 51//6 42//6 50//6
f 49//6 50//6 41//6
